ply
format ascii 1.0
element vertex 31
property float x
property float y
property float z
property uchar red
property uchar green
property uchar blue
end_header
-2.409343719482422 -0.5752946138381958 5.232578754425049 168 168 168
-2.0020604133605957 -1.2257152795791626 4.461544036865234 26 26 26
-2.120971918106079 -0.9996128678321838 4.804385662078857 124 124 124
-2.120971918106079 -0.9996128678321838 4.804385662078857 124 124 124
-2.226774215698242 -0.7452876567840576 5.056902885437012 27 27 27
-2.3209381103515625 -0.7505646347999573 5.280514240264893 22 22 22
-2.312082290649414 -0.4755675494670868 5.307995319366455 26 26 26
-1.732474684715271 -1.3209102153778076 3.9804770946502686 64 64 64
-1.732474684715271 -1.3209102153778076 3.9804770946502686 64 64 64
-2.4595463275909424 0.05586652085185051 5.710402488708496 111 111 111
-2.304621696472168 -0.4446822702884674 5.3635029792785645 130 130 130
-2.3555421829223633 -0.1482851207256317 5.51266622543335 33 33 33
-2.3555421829223633 -0.1482851207256317 5.51266622543335 33 33 33
-2.2663745880126953 -0.4751279652118683 5.319328308105469 26 26 26
-1.7765485048294067 -1.1759428977966309 4.242982864379883 21 21 21
-1.7765485048294067 -1.1759428977966309 4.242982864379883 21 21 21
-2.333015203475952 -0.11807707697153091 5.586683750152588 117 117 117
-1.782685399055481 -1.220213532447815 4.322859764099121 114 114 114
-2.034071445465088 -0.771025538444519 4.957682132720947 26 26 26
-2.522076368331909 0.8806883692741394 6.1759033203125 139 139 139
-1.5099800825119019 -1.2664422988891602 3.7897677421569824 32 32 32
-2.147263765335083 -0.4782983660697937 5.386785984039307 27 27 27
-2.251415491104126 -0.19646018743515015 5.687512397766113 20 20 20
-2.3118081092834473 0.15710680186748505 5.930305480957031 43 43 43
-2.499207019805908 0.9613014459609985 6.406485080718994 127 127 127
-2.506425142288208 1.1218156814575195 6.429512977600098 121 121 121
-0.23205558955669403 0.11349768191576004 0.6315203905105591 113 113 113
-1.7591845989227295 -0.8034562468528748 4.929930210113525 112 112 112
-2.1178529262542725 0.16721166670322418 6.282290458679199 131 131 131
-1.9848113059997559 -0.20425526797771454 5.904301643371582 44 44 44
-0.003177521051838994 0.022060882300138474 0.050034161657094955 57 57 57
