ply
format ascii 1.0
element vertex 21
property float x
property float y
property float z
property uchar red
property uchar green
property uchar blue
end_header
-3.4192731380462646 -1.6021802425384521 7.185359954833984 26 26 26
-3.319427728652954 -0.37005871534347534 6.9901838302612305 124 124 124
-3.3259451389312744 -1.111471176147461 7.099841594696045 137 137 137
-3.3259451389312744 -1.111471176147461 7.099841594696045 137 137 137
-3.309711456298828 0.6533077955245972 7.068710803985596 54 54 54
-3.396897315979004 1.1268571615219116 7.3050312995910645 70 70 70
-3.298427104949951 -1.3882454633712769 7.095017433166504 154 154 154
-3.3059093952178955 0.8716427683830261 7.214413642883301 15 15 15
-3.1903791427612305 0.21322138607501984 6.981887340545654 59 59 59
-3.169724702835083 0.23073430359363556 7.022464752197266 37 37 37
-3.1499388217926025 -0.032846882939338684 7.023866653442383 122 122 122
-3.1499388217926025 -0.032846882939338684 7.023866653442383 122 122 122
-3.104983329772949 0.36527734994888306 6.9943156242370605 81 81 81
-2.5154056549072266 -0.6678489446640015 6.349806308746338 27 27 27
-2.481520891189575 -0.2813139855861664 6.327548503875732 29 29 29
-2.529536008834839 0.37721362709999084 6.476982116699219 85 85 85
-2.4440529346466064 -1.1230297088623047 6.2896409034729 24 24 24
-2.4359822273254395 0.29307979345321655 6.321791648864746 30 30 30
-2.3086483478546143 -1.0006959438323975 6.1769561767578125 196 196 196
-2.2676069736480713 -1.0652738809585571 6.118805885314941 41 41 41
-1.9993184804916382 -0.0686318650841713 5.896897315979004 31 31 31
