ply
format ascii 1.0
element vertex 14
property float x
property float y
property float z
property uchar red
property uchar green
property uchar blue
end_header
1.7077365827608115e-15 -7.498510276246484e-14 1.2250561621986872e-13 32 32 32
0.0017286523943766952 -0.034060146659612656 0.08555912226438522 128 128 128
8.043674212450684e-16 -1.5818070933496832e-14 3.2288319966929796e-14 31 31 31
0.001320207491517067 -0.018414737656712532 0.06218845397233963 220 220 220
2.930498098824069e-15 -7.960702951871623e-14 1.3171722827026722e-13 27 27 27
0.0007606116705574095 -0.0006451556109823287 0.035629790276288986 136 136 136
3.215755554992827e-16 -9.36654432908844e-16 9.090876821129818e-15 27 27 27
2.921952648117016e-16 2.063860957817372e-17 7.599012090690922e-15 38 38 38
7.050321617514124e-16 -3.1535057802101283e-15 1.2485108941433145e-14 107 107 107
7.303335652814903e-16 -3.2221948582765317e-15 1.2575809229425135e-14 110 110 110
7.945323099362619e-16 -3.463669975495103e-15 1.2904000615168287e-14 100 100 100
5.4821322305058e-16 7.006433134747734e-16 6.499362578346341e-15 24 24 24
5.314464705574772e-16 8.692683032735546e-16 6.242629009615931e-15 25 25 25
6.121571696069057e-16 1.3639685522852293e-16 7.349894618705749e-15 82 82 82
