ply
format ascii 1.0
element vertex 12
property float x
property float y
property float z
property uchar red
property uchar green
property uchar blue
end_header
-0.32694628834724426 -0.2060055285692215 0.7048667073249817 112 112 112
-0.04888435825705528 -0.012247186154127121 0.11059970408678055 105 105 105
-0.06536148488521576 -0.10384811460971832 0.37787407636642456 235 235 235
-3.4076807800442386e-16 -5.905153189858807e-16 2.857347909982714e-15 254 254 254
-2.7425190414552374e-16 -5.405400574605217e-16 2.579145444171196e-15 255 255 255
-1.9712158689435958e-16 -4.841188222669984e-16 2.2553253837105875e-15 255 255 255
4.859751611453552e-17 -3.1872481317573914e-16 1.22038220051442e-15 238 238 238
7.526128611348834e-17 -3.025975970275929e-16 1.1130273389552787e-15 255 255 255
1.9489801952869863e-16 -6.274172622450799e-16 1.6588454175288196e-15 97 97 97
3.702321190746647e-16 -4.883581692284469e-16 1.0939549098401904e-15 123 123 123
4.131027594060302e-16 -4.888892588863754e-16 9.40031553269547e-16 100 100 100
4.2339751843762014e-16 -4.58518786683454e-16 9.157111197715079e-16 97 97 97
