ply
format ascii 1.0
element vertex 32
property float x
property float y
property float z
property uchar red
property uchar green
property uchar blue
end_header
-2.9241080284118652 -1.10194730758667 6.270334243774414 78 78 78
-2.927842617034912 -1.4877368211746216 6.304198741912842 16 16 16
-2.894648551940918 -1.238940954208374 6.312854290008545 19 19 19
-2.904010534286499 -1.490785002708435 6.429137706756592 19 19 19
-2.889051675796509 -1.551286220550537 6.54024076461792 68 68 68
-2.911393404006958 -1.3587359189987183 6.651004314422607 75 75 75
-2.9317922592163086 -1.2615907192230225 6.709382057189941 120 120 120
-2.8517861366271973 -1.5705455541610718 6.697780609130859 36 36 36
-2.935180425643921 -1.4327791929244995 6.9428277015686035 38 38 38
-2.8623526096343994 -1.8177118301391602 6.88876485824585 137 137 137
-3.204423189163208 0.5246450901031494 7.756274700164795 42 42 42
-2.824920415878296 -1.9535032510757446 6.906308174133301 133 133 133
-3.1642918586730957 0.6677770018577576 7.831488609313965 76 76 76
-2.9887595176696777 -1.6636815071105957 7.479928493499756 28 28 28
-3.4843692779541016 0.5884430408477783 8.800698280334473 43 43 43
-3.3706462383270264 0.7698869109153748 8.526516914367676 13 13 13
-3.026543140411377 -1.3504502773284912 7.775921821594238 92 92 92
-3.0271413326263428 -1.1717944145202637 7.831753253936768 96 96 96
-3.3564631938934326 0.6670740842819214 8.723286628723145 49 49 49
-3.2089037895202637 -0.7890850901603699 8.4163236618042 69 69 69
-3.5075016021728516 0.6150206327438354 9.248895645141602 41 41 41
-3.2152912616729736 -0.5391807556152344 8.473367691040039 61 61 61
-3.2324931621551514 -0.10324246436357498 8.64338207244873 45 45 45
-3.330422878265381 0.15453693270683289 8.953822135925293 50 50 50
-3.2848739624023438 0.01590036228299141 8.897238731384277 77 77 77
-3.2848739624023438 0.01590036228299141 8.897238731384277 77 77 77
-3.395822525024414 0.4364388585090637 9.203213691711426 25 25 25
-3.3252182006835938 0.18008312582969666 9.055591583251953 39 39 39
-3.2742888927459717 0.6427368521690369 9.047688484191895 96 96 96
-3.7617785930633545 0.5630006790161133 12.547616004943848 92 92 92
-3.536102294921875 -0.6552857756614685 11.870376586914062 29 29 29
-3.782874345779419 0.4246266782283783 13.019726753234863 29 29 29
