ply
format ascii 1.0
element vertex 32
property float x
property float y
property float z
property uchar red
property uchar green
property uchar blue
end_header
-12.831167221069336 -5.222988128662109 31.172456741333008 84 84 84
-10.161332130432129 -5.606646537780762 24.880661010742188 18 18 18
-10.349499702453613 -5.812346935272217 26.204919815063477 19 19 19
-10.511602401733398 -5.9141411781311035 26.657987594604492 21 21 21
-10.606759071350098 -6.249911785125732 27.623485565185547 101 101 101
-12.098445892333984 -5.716848850250244 31.8161563873291 125 125 125
-10.31791877746582 -6.282951354980469 28.064266204833984 39 39 39
-10.772640228271484 -5.805607795715332 29.52541160583496 40 40 40
-9.306520462036133 -6.601262092590332 26.14391326904297 138 138 138
-9.603550910949707 -5.722297191619873 27.08900260925293 59 59 59
-9.603550910949707 -5.722297191619873 27.08900260925293 59 59 59
-10.796142578125 -6.349231719970703 31.604923248291016 180 180 180
-11.311184883117676 -5.626854419708252 34.341609954833984 93 93 93
-13.480592727661133 -4.707278728485107 41.500640869140625 86 86 86
-14.526488304138184 -3.9501261711120605 45.09762191772461 82 82 82
-11.313755989074707 -5.934710502624512 35.67628860473633 154 154 154
-12.04403018951416 -5.343639850616455 38.285072326660156 147 147 147
-9.703112602233887 -7.196103096008301 40.33159255981445 21 21 21
-9.728754043579102 -6.465575218200684 40.55763244628906 24 24 24
-10.830681800842285 -6.360757350921631 45.47745895385742 25 25 25
-11.669102668762207 -6.000189304351807 49.230594635009766 26 26 26
-10.035491943359375 -6.8055877685546875 43.28733444213867 97 97 97
-10.035491943359375 -6.8055877685546875 43.28733444213867 97 97 97
-10.161072731018066 -6.544195652008057 43.89335632324219 93 93 93
-9.440093040466309 -7.24406623840332 41.703582763671875 22 22 22
-9.401124000549316 -7.2081298828125 41.5263557434082 22 22 22
-9.839336395263672 -6.624746799468994 43.71375274658203 34 34 34
-10.074156761169434 -6.750758647918701 46.24683380126953 161 161 161
-9.514350891113281 -7.169520378112793 45.5382194519043 199 199 199
-8.4091796875 -8.338340759277344 40.74754333496094 38 38 38
-9.265317916870117 -7.745242118835449 45.44725799560547 54 54 54
-8.620607376098633 -8.067743301391602 42.38713073730469 34 34 34
