ply
format ascii 1.0
element vertex 32
property float x
property float y
property float z
property uchar red
property uchar green
property uchar blue
end_header
-1.1125497817993164 -0.614149808883667 2.262629747390747 26 26 26
-1.0444308519363403 -0.8282784223556519 2.2560458183288574 126 126 126
-1.0330976247787476 -0.701386570930481 2.2654125690460205 125 125 125
-1.0324897766113281 -0.6217207908630371 2.2677509784698486 39 39 39
-1.035108208656311 -0.5115840435028076 2.276081085205078 126 126 126
-0.9696118235588074 -1.026314377784729 2.322962522506714 51 51 51
-0.9574002623558044 -1.0326344966888428 2.3364322185516357 177 177 177
-0.9466060400009155 -1.024233341217041 2.3501691818237305 58 58 58
-0.9391708374023438 -0.242898628115654 2.360673189163208 128 128 128
-0.9304214119911194 -1.0126694440841675 2.3573834896087646 57 57 57
-0.9307027459144592 -0.05551775544881821 2.3693199157714844 120 120 120
-0.9191519618034363 0.3556177616119385 2.387784481048584 103 103 103
-0.913399338722229 1.0305321216583252 2.4259531497955322 60 60 60
-0.7626587152481079 -0.1761128306388855 2.4966373443603516 130 130 130
-0.7645766735076904 0.20287932455539703 2.5231571197509766 106 106 106
-0.7645766735076904 0.20287932455539703 2.5231571197509766 106 106 106
-0.7549948692321777 -0.030970852822065353 2.511359930038452 124 124 124
-0.7425097227096558 -0.1828184276819229 2.4963266849517822 52 52 52
-0.7433226704597473 0.06323586404323578 2.5086989402770996 57 57 57
-0.7343000173568726 -0.18767501413822174 2.495126962661743 129 129 129
-0.731968104839325 -0.0713537409901619 2.503868579864502 37 37 37
-0.7286665439605713 -0.10308592021465302 2.4948158264160156 146 146 146
-0.7297980189323425 -0.004180436953902245 2.5068345069885254 50 50 50
-0.7272495627403259 0.10524007678031921 2.5142321586608887 48 48 48
-0.7215672731399536 0.021955346688628197 2.512791395187378 60 60 60
-0.7110075950622559 -0.011804644949734211 2.5101280212402344 131 131 131
-0.6910115480422974 -0.0629562959074974 2.505566358566284 37 37 37
-0.6626434922218323 -0.05321132391691208 2.5056724548339844 73 73 73
-0.657495379447937 0.06379514187574387 2.5246901512145996 108 108 108
-0.6296834349632263 -0.02112250216305256 2.5240299701690674 35 35 35
-0.6151936054229736 -0.03146067634224892 2.523555040359497 107 107 107
-0.6151936054229736 -0.03146067634224892 2.523555040359497 107 107 107
