ply
format ascii 1.0
element vertex 20
property float x
property float y
property float z
property uchar red
property uchar green
property uchar blue
end_header
-1.0311766862869263 0.8091850280761719 2.593502998352051 42 42 42
-0.9424464106559753 0.6285074353218079 2.5435314178466797 66 66 66
-0.9271447062492371 0.5542097687721252 2.54687762260437 57 57 57
-0.8641906380653381 0.45442360639572144 2.5147430896759033 92 92 92
-0.8664211630821228 0.2804485261440277 2.5564661026000977 59 59 59
-0.8472262024879456 0.36025965213775635 2.5250895023345947 21 21 21
-0.8432161211967468 0.3850291073322296 2.521101713180542 38 38 38
-0.8432161211967468 0.3850291073322296 2.521101713180542 38 38 38
-0.8248181343078613 0.5334804058074951 2.4880104064941406 104 104 104
-0.8257149457931519 0.42912691831588745 2.503300666809082 72 72 72
-0.8234768509864807 0.5804340243339539 2.4976882934570312 11 11 11
-0.7890419363975525 0.8281089067459106 2.453040838241577 94 94 94
-0.7708489298820496 0.5169012546539307 2.4634337425231934 119 119 119
-0.7041491866111755 0.4271319508552551 2.445577621459961 87 87 87
-0.6814684867858887 0.4751444458961487 2.4107933044433594 35 35 35
-0.6693245768547058 0.4868384301662445 2.4142086505889893 38 38 38
-0.6591175198554993 0.4685439169406891 2.406162977218628 38 38 38
-0.6388921737670898 0.46791818737983704 2.398963212966919 85 85 85
-0.6211867928504944 0.26222890615463257 2.4114394187927246 60 60 60
-0.5443188548088074 0.4309811294078827 2.342028856277466 116 116 116
