ply
format ascii 1.0
element vertex 25
property float x
property float y
property float z
property uchar red
property uchar green
property uchar blue
end_header
-1.1017206907272339 0.4207228124141693 2.300853729248047 92 92 92
-0.9527797698974609 -0.239349365234375 2.278064727783203 111 111 111
-0.9527797698974609 -0.239349365234375 2.278064727783203 111 111 111
-1.0150190591812134 -0.1734536737203598 2.728452444076538 228 228 228
-0.8732927441596985 0.17745420336723328 2.3465914726257324 26 26 26
-0.8513861298561096 0.4409579038619995 2.307047128677368 33 33 33
-1.0033732652664185 -0.05369390547275543 2.8181233406066895 46 46 46
-0.8078756928443909 0.38421186804771423 2.28314208984375 98 98 98
-0.7964408993721008 0.21971914172172546 2.269932746887207 55 55 55
-0.7893851399421692 0.2969066798686981 2.276862382888794 26 26 26
-0.7942945957183838 0.4377654194831848 2.2986931800842285 55 55 55
-0.7844969630241394 0.5962488651275635 2.3201847076416016 57 57 57
-0.8943918347358704 -0.36003610491752625 2.774803638458252 43 43 43
-0.8943918347358704 -0.36003610491752625 2.774803638458252 43 43 43
-0.8748735189437866 -0.3548518419265747 2.728558301925659 31 31 31
-0.7324056625366211 0.616195797920227 2.3060009479522705 91 91 91
-0.9194818139076233 -0.3306373357772827 2.891305446624756 213 213 213
-0.6697741746902466 0.42776814103126526 2.2882189750671387 33 33 33
-0.6589202284812927 0.44962364435195923 2.28932523727417 122 122 122
-0.6175956726074219 0.22413846850395203 2.279690742492676 60 60 60
-0.2800509035587311 -0.16166913509368896 1.0429898500442505 35 35 35
-0.6006075739860535 0.31605443358421326 2.282432794570923 104 104 104
-0.6006075739860535 0.31605443358421326 2.282432794570923 104 104 104
-0.5830464363098145 0.3268895745277405 2.2834784984588623 33 33 33
-0.5830464363098145 0.3268895745277405 2.2834784984588623 33 33 33
