ply
format ascii 1.0
element vertex 8
property float x
property float y
property float z
property uchar red
property uchar green
property uchar blue
end_header
1.9584519863128662 1.716747522354126 5.887429237365723 119 119 119
2.2025961875915527 1.42429780960083 6.515000820159912 36 36 36
4.255949020385742 -0.08406350761651993 12.406328201293945 79 79 79
2.4814865589141846 1.2455109357833862 6.347132205963135 17 17 17
4.827268123626709 -0.15603017807006836 12.165163040161133 17 17 17
4.052309989929199 0.3491605818271637 9.603272438049316 116 116 116
4.052309989929199 0.3491605818271637 9.603272438049316 116 116 116
1.1243596076965332 -0.9758880734443665 2.3080461025238037 97 97 97
