ply
format ascii 1.0
element vertex 23
property float x
property float y
property float z
property uchar red
property uchar green
property uchar blue
end_header
-0.4042101800441742 0.11629945784807205 1.4537646770477295 42 42 42
-0.3974235951900482 0.11558081209659576 1.4577361345291138 67 67 67
-0.38465607166290283 0.513176679611206 1.506360650062561 23 23 23
-0.35428398847579956 -0.41814061999320984 1.4413145780563354 112 112 112
-0.33956190943717957 -0.22048541903495789 1.4820142984390259 124 124 124
-0.3134276270866394 0.38361823558807373 1.5741969347000122 120 120 120
-0.2928251326084137 -0.6498150825500488 1.4835418462753296 110 110 110
-0.2688293159008026 0.30795058608055115 1.6127772331237793 120 120 120
-0.2637837529182434 0.3577894866466522 1.620100736618042 29 29 29
-0.2504675090312958 0.24320688843727112 1.627197027206421 130 130 130
-0.20740801095962524 0.16413700580596924 1.664710283279419 180 180 180
-0.18323557078838348 -0.685978889465332 1.6099470853805542 144 144 144
-0.17020981013774872 -0.5850165486335754 1.6352952718734741 51 51 51
-0.1582360863685608 -0.6688888669013977 1.635770559310913 106 106 106
-0.15723006427288055 -0.5949738621711731 1.647668480873108 101 101 101
-0.15724793076515198 0.6992380619049072 1.7647278308868408 43 43 43
-0.12118998169898987 -0.5920587778091431 1.6937127113342285 40 40 40
-0.1150098443031311 -0.6048825979232788 1.6947141885757446 37 37 37
-0.10826355963945389 -0.5719826221466064 1.7061262130737305 102 102 102
-0.08699909597635269 0.15138132870197296 1.7971893548965454 140 140 140
-0.0701165646314621 0.1521555483341217 1.8050602674484253 57 57 57
-0.06138770654797554 -0.43384701013565063 1.7702133655548096 102 102 102
-0.052636709064245224 -0.5257035493850708 1.7772196531295776 84 84 84
