ply
format ascii 1.0
element vertex 19
property float x
property float y
property float z
property uchar red
property uchar green
property uchar blue
end_header
-0.272251158952713 -0.17762649059295654 1.1883454322814941 124 124 124
-0.23515142500400543 -0.5209498405456543 1.1904312372207642 110 110 110
-0.24504102766513824 0.015091259963810444 1.2410633563995361 138 138 138
-0.24504102766513824 0.015091259963810444 1.2410633563995361 138 138 138
-0.17970451712608337 0.1804579496383667 1.3432648181915283 77 77 77
-0.16748027503490448 0.13083457946777344 1.3414033651351929 180 180 180
-0.1469898670911789 -0.5483128428459167 1.2889037132263184 144 144 144
-0.14089901745319366 -0.09891078621149063 1.3693554401397705 55 55 55
-0.12691903114318848 -0.5351536870002747 1.3100415468215942 106 106 106
-0.12593623995780945 -0.4767361879348755 1.3200052976608276 101 101 101
-0.11969619244337082 -0.31281810998916626 1.344277262687683 57 57 57
-0.08661291003227234 -0.45817679166793823 1.36613130569458 102 102 102
-0.0844983160495758 -0.4366137385368347 1.3714206218719482 107 107 107
-0.08050073683261871 -0.484176903963089 1.3698210716247559 86 86 86
-0.07053690403699875 -0.035943035036325455 1.4370718002319336 115 115 115
-0.07061702758073807 0.12051115185022354 1.4506871700286865 140 140 140
-0.06550135463476181 0.13300031423568726 1.4510735273361206 131 131 131
-0.057202715426683426 0.12147300690412521 1.461774230003357 57 57 57
-0.048995837569236755 -0.34880924224853516 1.4183636903762817 102 102 102
