ply
format ascii 1.0
element vertex 10
property float x
property float y
property float z
property uchar red
property uchar green
property uchar blue
end_header
-0.11234432458877563 0.24275118112564087 0.4667505919933319 6 6 6
-2.4218675724316295e-16 -3.450523441818565e-16 9.99937852584989e-16 67 67 67
0.007530559320002794 0.26896607875823975 0.5540319085121155 14 14 14
1.1456631478360725e-16 -1.1976369571306983e-16 1.7607704802587057e-15 147 147 147
0.04174930974841118 0.3015223443508148 0.618544340133667 17 17 17
0.12930122017860413 0.0810997411608696 0.665327787399292 126 126 126
4.723245237511927e-16 -4.453306491308271e-17 2.2631934727576327e-15 53 53 53
7.018837402864681e-16 1.7637900733063285e-16 2.334137564287864e-15 101 101 101
7.174568115986529e-16 1.810049718929438e-16 2.3459172514853294e-15 110 110 110
7.394052881465839e-16 1.8719024470181112e-16 2.3628250879037093e-15 134 134 134
