ply
format ascii 1.0
element vertex 302
property float x
property float y
property float z
property uchar red
property uchar green
property uchar blue
end_header
-3.4323344230651855 1.614080548286438 7.265934467315674 32 32 32
-3.4003405570983887 1.5161633491516113 7.221003532409668 104 104 104
-3.5200107097625732 0.5375178456306458 7.621917247772217 67 67 67
-3.3000941276550293 -2.6462814807891846 7.2139692306518555 84 84 84
-3.2066283226013184 -2.549297332763672 7.150279998779297 97 97 97
-3.246664047241211 1.148984432220459 7.324429035186768 32 32 32
-3.1903676986694336 -2.5995798110961914 7.207114219665527 57 57 57
-3.21353816986084 1.5135291814804077 7.3346638679504395 99 99 99
-3.2079918384552 2.5681538581848145 7.359933376312256 25 25 25
-3.2727739810943604 -2.169752597808838 7.510964393615723 216 216 216
-3.1927385330200195 0.8451060652732849 7.35378885269165 115 115 115
-3.1697309017181396 0.895610511302948 7.342003345489502 135 135 135
-3.1697309017181396 0.895610511302948 7.342003345489502 135 135 135
-3.1505370140075684 1.6460275650024414 7.386293411254883 20 20 20
-3.1207940578460693 1.4077564477920532 7.3404622077941895 139 139 139
-2.995546579360962 2.606322765350342 7.469773292541504 24 24 24
-2.9920570850372314 -2.347851514816284 7.575296401977539 65 65 65
-2.8498189449310303 -2.602785348892212 7.338908672332764 103 103 103
-2.894129991531372 1.5692757368087769 7.492732524871826 104 104 104
-2.9698801040649414 -0.6843979358673096 7.707274913787842 109 109 109
-2.875633955001831 2.336543083190918 7.514923095703125 81 81 81
-2.135143518447876 3.430853843688965 5.596166610717773 116 116 116
-2.8546159267425537 -0.9032254219055176 7.742915153503418 35 35 35
-2.797996759414673 -2.2556686401367188 7.594135284423828 20 20 20
-2.845123529434204 -1.1508750915527344 7.7693305015563965 43 43 43
-2.6782209873199463 -2.940448045730591 7.412870407104492 33 33 33
-2.6681206226348877 -3.5032172203063965 7.39808988571167 80 80 80
-2.811112880706787 0.6683467030525208 7.817501068115234 75 75 75
-2.7148516178131104 1.734824299812317 7.607235431671143 120 120 120
-2.652141809463501 1.5459765195846558 7.542022705078125 56 56 56
-2.7219903469085693 -1.888780951499939 7.834595680236816 26 26 26
-2.7219903469085693 -1.888780951499939 7.834595680236816 26 26 26
-3.036893844604492 0.3327265977859497 8.771666526794434 143 143 143
-3.12743878364563 0.1247868686914444 9.06318187713623 254 254 254
-2.612841844558716 1.2159017324447632 7.659645080566406 23 23 23
-2.6029727458953857 1.3955399990081787 7.653589725494385 102 102 102
-2.5921738147735596 2.9360039234161377 7.666412830352783 74 74 74
-2.5279998779296875 -3.106715202331543 7.484604835510254 101 101 101
-3.0357718467712402 -0.8364514708518982 9.002196311950684 169 169 169
-2.5180253982543945 -2.5448737144470215 7.525498867034912 136 136 136
-2.5173773765563965 1.9065943956375122 7.73295259475708 71 71 71
-2.527474880218506 1.6045489311218262 7.7719902992248535 30 30 30
-2.3919405937194824 -2.7859933376312256 7.5607428550720215 133 133 133
-2.3919405937194824 -2.7859933376312256 7.5607428550720215 133 133 133
-2.4266600608825684 1.5969525575637817 7.688121318817139 0 0 0
-2.438833713531494 2.1853835582733154 7.727456569671631 110 110 110
-2.3550620079040527 -2.758824586868286 7.537888526916504 136 136 136
-2.6713457107543945 -2.0079846382141113 8.59978199005127 22 22 22
-2.4024336338043213 2.377866268157959 7.777834892272949 90 90 90
-2.4024336338043213 2.377866268157959 7.777834892272949 90 90 90
-2.3752872943878174 1.9600698947906494 7.7512030601501465 115 115 115
-2.3732874393463135 1.78499436378479 7.752153396606445 136 136 136
-2.7767486572265625 0.17499840259552002 9.090928077697754 254 254 254
-2.3803839683532715 2.5220162868499756 7.800226211547852 33 33 33
-2.751512050628662 -0.30554473400115967 9.048298835754395 40 40 40
-2.357414722442627 1.5434292554855347 7.773002624511719 34 34 34
-2.076937675476074 -1.1531814336776733 6.889090538024902 26 26 26
-2.3405559062957764 1.4961180686950684 7.807201862335205 66 66 66
-2.259843349456787 -3.1262714862823486 7.588560104370117 111 111 111
-2.6998236179351807 -0.9049140810966492 9.097792625427246 205 205 205
-2.3114113807678223 1.6730276346206665 7.795312404632568 103 103 103
-2.4098522663116455 -1.5499017238616943 8.173089981079102 2 2 2
-2.4098522663116455 -1.5499017238616943 8.173089981079102 2 2 2
-2.2918853759765625 2.279819965362549 7.795762062072754 21 21 21
-2.2516300678253174 1.7847247123718262 7.6831278800964355 3 3 3
-2.2516300678253174 1.7847247123718262 7.6831278800964355 3 3 3
-2.2655587196350098 2.9457149505615234 7.871589183807373 89 89 89
-2.1189517974853516 0.7133045792579651 7.468040466308594 104 104 104
-2.2055504322052 2.729668378829956 7.873441696166992 77 77 77
-2.5750436782836914 0.5533400177955627 9.274666786193848 75 75 75
-2.1706862449645996 2.1847312450408936 7.887078285217285 94 94 94
-2.157376289367676 1.676745891571045 7.887289047241211 120 120 120
-1.779106855392456 3.3095099925994873 6.507986545562744 47 47 47
-2.1243274211883545 2.407628297805786 7.867122173309326 99 99 99
-2.104037046432495 1.8153998851776123 7.8870368003845215 34 34 34
-2.45491623878479 -0.8886446356773376 9.28303337097168 245 245 245
-2.082292079925537 1.633671522140503 7.904993057250977 131 131 131
-2.3502676486968994 -0.7857849597930908 9.093347549438477 236 236 236
-2.034435987472534 1.3421884775161743 7.896697044372559 28 28 28
-1.996124029159546 -2.348841667175293 7.943222522735596 72 72 72
-1.996124029159546 -2.348841667175293 7.943222522735596 72 72 72
-1.9883732795715332 2.0616395473480225 7.952597618103027 123 123 123
-1.9531934261322021 1.6268415451049805 7.968505382537842 164 164 164
-2.2729482650756836 -0.3248676359653473 9.343488693237305 51 51 51
-2.2729482650756836 -0.3248676359653473 9.343488693237305 51 51 51
-1.9161467552185059 1.689857006072998 7.950021743774414 133 133 133
-1.9006080627441406 -2.3267476558685303 7.914053916931152 76 76 76
-1.9006080627441406 -2.3267476558685303 7.914053916931152 76 76 76
-1.9365943670272827 3.0692856311798096 8.068037986755371 35 35 35
-1.9043103456497192 2.2299728393554688 8.004952430725098 99 99 99
-2.1235640048980713 0.4993879497051239 8.943229675292969 83 83 83
-1.8850229978561401 1.547187089920044 7.94314432144165 99 99 99
-1.8850229978561401 1.547187089920044 7.94314432144165 99 99 99
-2.1747477054595947 0.3479948937892914 9.18366527557373 61 61 61
-2.1920859813690186 -0.21490907669067383 9.386188507080078 216 216 216
-1.8418552875518799 -1.1790903806686401 7.891458988189697 38 38 38
-2.178004741668701 -0.9386715888977051 9.344613075256348 36 36 36
-1.870657205581665 1.7796236276626587 8.029106140136719 149 149 149
-1.8684947490692139 2.3928346633911133 8.058761596679688 101 101 101
-1.8648582696914673 1.461506962776184 8.062640190124512 51 51 51
-1.8592747449874878 1.7802419662475586 8.065847396850586 125 125 125
-2.1511073112487793 -0.352863073348999 9.362281799316406 250 250 250
-1.8409137725830078 2.2217705249786377 8.045727729797363 111 111 111
-1.8151978254318237 0.8582572340965271 7.987350940704346 59 59 59
-1.7989546060562134 1.497288465499878 7.956236839294434 107 107 107
-2.103947162628174 -0.48477959632873535 9.3240966796875 25 25 25
-1.7615606784820557 -2.757662534713745 7.849305629730225 134 134 134
-1.7615606784820557 -2.757662534713745 7.849305629730225 134 134 134
-1.4671071767807007 -1.9383587837219238 6.568179607391357 68 68 68
-1.8063857555389404 3.0816152095794678 8.158915519714355 32 32 32
-1.7671905755996704 1.6906278133392334 8.05452823638916 80 80 80
-1.8722330331802368 -1.283034086227417 8.548336029052734 57 57 57
-1.8648747205734253 0.6654989719390869 8.561511993408203 75 75 75
-1.7312918901443481 1.8141586780548096 8.099952697753906 29 29 29
-1.7267659902572632 2.470532178878784 8.091464042663574 39 39 39
-1.7475018501281738 3.094149589538574 8.20261001586914 57 57 57
-1.721189022064209 3.1174726486206055 8.192155838012695 136 136 136
-1.7860071659088135 0.4560132920742035 8.583745002746582 115 115 115
-1.561198115348816 -1.158513069152832 7.629581451416016 66 66 66
-1.6613144874572754 1.9419337511062622 8.183820724487305 127 127 127
-1.6462500095367432 1.92051100730896 8.132189750671387 130 130 130
-1.6462500095367432 1.92051100730896 8.132189750671387 130 130 130
-1.683815598487854 -1.0194625854492188 8.456111907958984 51 51 51
-1.5299254655838013 -2.612278699874878 7.979302406311035 122 122 122
-1.5548731088638306 1.3610419034957886 8.22756576538086 16 16 16
-1.5718477964401245 -0.9964436888694763 8.318527221679688 118 118 118
-1.4953339099884033 -3.1433486938476562 7.930978775024414 96 96 96
-1.1851208209991455 3.3493127822875977 6.332220077514648 49 49 49
-1.5191607475280762 1.677602767944336 8.170499801635742 125 125 125
-1.5295519828796387 0.6520664095878601 8.399991989135742 60 60 60
-1.4865912199020386 1.6326184272766113 8.197904586791992 150 150 150
-1.4902524948120117 1.5842235088348389 8.227338790893555 7 7 7
-1.4685628414154053 1.6290704011917114 8.170997619628906 101 101 101
-1.425430417060852 1.5445674657821655 8.290109634399414 56 56 56
-1.3901299238204956 3.0534684658050537 8.231771469116211 120 120 120
-1.3947043418884277 2.2217090129852295 8.317350387573242 109 109 109
-1.3621336221694946 -1.0851134061813354 8.38802433013916 131 131 131
-1.3495081663131714 2.424527406692505 8.327861785888672 54 54 54
-1.3374069929122925 2.395142078399658 8.326153755187988 53 53 53
-1.3374069929122925 2.395142078399658 8.326153755187988 53 53 53
-1.2951613664627075 -2.6310415267944336 8.090352058410645 138 138 138
-1.3089052438735962 2.4322540760040283 8.31279468536377 104 104 104
-1.303490400314331 2.5843825340270996 8.31844425201416 103 103 103
-1.2908097505569458 2.540102243423462 8.32100772857666 104 104 104
-1.191645622253418 2.3082942962646484 8.333642959594727 107 107 107
-1.178243637084961 1.6771444082260132 8.333089828491211 141 141 141
-1.1923290491104126 3.0475070476531982 8.466521263122559 46 46 46
-1.1900488138198853 0.4293365478515625 8.461352348327637 188 188 188
-1.140150785446167 1.0358376502990723 8.273848533630371 47 47 47
-1.1558384895324707 1.5605415105819702 8.410724639892578 24 24 24
-1.1274434328079224 3.0425028800964355 8.355329513549805 104 104 104
-1.1316405534744263 2.3710997104644775 8.385741233825684 62 62 62
-1.112924337387085 1.8807858228683472 8.411983489990234 102 102 102
-1.0649263858795166 2.4455857276916504 8.435324668884277 143 143 143
-1.0495750904083252 2.048161029815674 8.369864463806152 119 119 119
-1.0510029792785645 1.8777120113372803 8.404648780822754 46 46 46
-1.0324046611785889 2.1433522701263428 8.368063926696777 40 40 40
-0.9960411190986633 1.5421257019042969 8.382254600524902 16 16 16
-0.9429028630256653 1.6499220132827759 8.429404258728027 122 122 122
-0.9291552305221558 -1.5189505815505981 8.65654182434082 255 255 255
-0.8654583096504211 1.5099200010299683 8.493261337280273 38 38 38
-0.8370450735092163 -2.532080888748169 8.224194526672363 103 103 103
-0.8435401916503906 1.7042150497436523 8.51799488067627 57 57 57
-0.8110677003860474 2.1350433826446533 8.433893203735352 51 51 51
-0.7880251407623291 -2.770220994949341 8.41707706451416 90 90 90
-0.7523366212844849 1.6577489376068115 8.576096534729004 99 99 99
-0.5918149948120117 0.6985650062561035 8.53769302368164 106 106 106
-0.5469871163368225 1.6894291639328003 8.661870002746582 82 82 82
-0.5731134414672852 -2.122001886367798 9.07727336883545 225 225 225
-0.5315295457839966 0.9331778287887573 8.625101089477539 179 179 179
-0.5315295457839966 0.9331778287887573 8.625101089477539 179 179 179
-0.524910032749176 1.1525936126708984 8.598113059997559 52 52 52
-0.5183629989624023 2.237701892852783 8.597224235534668 121 121 121
-0.44045042991638184 1.3617643117904663 8.725045204162598 44 44 44
-0.37215396761894226 0.9716681838035583 8.617480278015137 93 93 93
-0.3041514456272125 2.5658457279205322 8.216598510742188 92 92 92
-0.3239619731903076 1.5110440254211426 8.73426342010498 28 28 28
-0.3130154311656952 1.7640715837478638 8.770434379577637 92 92 92
-0.2621600925922394 2.6571836471557617 7.918802738189697 119 119 119
-0.2557879686355591 2.4695913791656494 8.746877670288086 152 152 152
-0.20877330005168915 2.668815851211548 8.210601806640625 44 44 44
-0.20877330005168915 2.668815851211548 8.210601806640625 44 44 44
-0.20823773741722107 2.3874852657318115 8.295907974243164 59 59 59
-0.20268619060516357 1.800463080406189 8.834600448608398 83 83 83
-0.1835131198167801 -2.3818514347076416 8.843116760253906 37 37 37
-0.0990360751748085 3.2941250801086426 6.945554733276367 71 71 71
-0.11209606379270554 -0.6867502331733704 8.957372665405273 58 58 58
-0.06525558233261108 1.2855603694915771 8.880145072937012 20 20 20
-0.06525558233261108 1.2855603694915771 8.880145072937012 20 20 20
-0.053626008331775665 2.678786277770996 8.128227233886719 13 13 13
-0.004973335657268763 0.28343653678894043 8.986435890197754 108 108 108
0.03203645348548889 -2.0587832927703857 8.875411033630371 26 26 26
0.07083244621753693 1.5544703006744385 8.902680397033691 14 14 14
0.07887841761112213 1.3283029794692993 8.867010116577148 20 20 20
0.0959867611527443 2.252340316772461 8.28023624420166 150 150 150
0.11571569740772247 -1.9800033569335938 8.675426483154297 125 125 125
0.11893229931592941 -1.7074114084243774 8.646239280700684 136 136 136
0.12704896926879883 0.6695789694786072 8.789081573486328 134 134 134
0.14767058193683624 3.0258679389953613 8.626940727233887 15 15 15
0.18646307289600372 -0.6505369544029236 8.686412811279297 132 132 132
0.2018348127603531 -1.93357253074646 8.517121315002441 135 135 135
0.21629953384399414 3.022352457046509 8.735669136047363 63 63 63
0.2205909788608551 -1.5847340822219849 8.489738464355469 66 66 66
0.2205909788608551 -1.5847340822219849 8.489738464355469 66 66 66
0.2205909788608551 -1.5847340822219849 8.489738464355469 66 66 66
0.23234893381595612 3.0619189739227295 8.59992790222168 90 90 90
0.28236255049705505 -2.1775386333465576 8.392889022827148 107 107 107
0.31070977449417114 -2.0665721893310547 8.398682594299316 74 74 74
0.31998884677886963 -1.19796884059906 8.323943138122559 161 161 161
0.34584179520606995 0.24001099169254303 8.42235279083252 132 132 132
0.45949795842170715 -3.264843702316284 7.970536231994629 87 87 87
0.4923493266105652 -1.3428847789764404 8.08934211730957 13 13 13
0.5050840973854065 0.5154476165771484 8.04735279083252 148 148 148
0.5103148221969604 0.20639576017856598 8.058853149414062 148 148 148
0.5303816199302673 0.1404358297586441 8.184426307678223 72 72 72
0.5303816199302673 0.1404358297586441 8.184426307678223 72 72 72
0.5815294981002808 0.07963067293167114 7.950660705566406 152 152 152
0.5815294981002808 0.07963067293167114 7.950660705566406 152 152 152
0.5953019857406616 0.20130079984664917 7.961771488189697 146 146 146
0.7956078052520752 1.674672245979309 7.708174705505371 23 23 23
0.824592113494873 0.06244707852602005 7.501841068267822 4 4 4
0.8649353384971619 1.8187801837921143 7.6249871253967285 84 84 84
0.8664563894271851 0.4275329113006592 7.489908695220947 95 95 95
0.8756383657455444 1.3218014240264893 7.542521953582764 102 102 102
0.873933732509613 -0.03881845623254776 7.436948776245117 97 97 97
0.8733307719230652 -0.4805588126182556 7.41565465927124 107 107 107
0.8980990052223206 2.322608709335327 7.531224727630615 78 78 78
0.8886438608169556 -1.4122370481491089 7.281563758850098 151 151 151
0.8845959901809692 -2.363576889038086 7.222992897033691 144 144 144
0.8926408290863037 -1.8892900943756104 7.278923511505127 150 150 150
0.9014086127281189 -1.5031880140304565 7.163007736206055 59 59 59
0.9252936244010925 -2.4233014583587646 7.16772985458374 142 142 142
0.9252936244010925 -2.4233014583587646 7.16772985458374 142 142 142
0.9258089661598206 -2.110809087753296 7.151235580444336 124 124 124
1.0530402660369873 1.8407704830169678 7.5309648513793945 43 43 43
1.0537075996398926 1.3589980602264404 7.515680313110352 45 45 45
1.0462543964385986 0.8842931985855103 7.453673839569092 45 45 45
1.0466994047164917 0.42354997992515564 7.399463176727295 41 41 41
1.0047894716262817 -2.5108261108398438 7.038326740264893 130 130 130
1.059712290763855 -1.3473596572875977 7.282604217529297 85 85 85
1.071212649345398 -2.32509446144104 7.155898571014404 83 83 83
1.150965929031372 -1.076785683631897 7.367481231689453 39 39 39
1.150965929031372 -1.076785683631897 7.367481231689453 39 39 39
1.0955841541290283 -3.327355146408081 6.834604263305664 131 131 131
0.9976514577865601 3.4438412189483643 6.210963249206543 163 163 163
1.1638410091400146 -2.4642906188964844 7.221664905548096 20 20 20
1.1297261714935303 -2.5342159271240234 6.84975004196167 129 129 129
1.2174745798110962 -0.639434278011322 7.337870121002197 139 139 139
1.2846801280975342 3.2236385345458984 7.5671467781066895 85 85 85
1.1577762365341187 -3.313882350921631 6.736965179443359 140 140 140
1.2367321252822876 -2.2684028148651123 7.188633918762207 149 149 149
1.2790716886520386 -2.103661060333252 7.195919513702393 133 133 133
1.3436261415481567 0.20509134232997894 7.34779691696167 136 136 136
1.3333709239959717 -2.258463144302368 7.161001205444336 32 32 32
1.3611400127410889 -2.1802897453308105 7.182713031768799 172 172 172
1.404954433441162 -3.123288631439209 6.3289475440979 15 15 15
1.597745418548584 -3.581692934036255 5.892385959625244 16 16 16
1.6154247522354126 -3.362290382385254 5.905433177947998 71 71 71
1.6775023937225342 -3.009404420852661 5.806029319763184 134 134 134
1.729945182800293 -3.3879287242889404 5.654388904571533 130 130 130
1.7527928352355957 -3.34191632270813 5.64879846572876 30 30 30
1.8022639751434326 -2.5160210132598877 5.670935153961182 141 141 141
1.8412412405014038 -3.067275047302246 5.508444786071777 121 121 121
2.375645160675049 3.341830253601074 6.918574810028076 29 29 29
2.3680710792541504 -0.9922935366630554 6.6010026931762695 31 31 31
2.3680710792541504 -0.9922935366630554 6.6010026931762695 31 31 31
2.387303590774536 -1.0497571229934692 6.577256679534912 40 40 40
2.387303590774536 -1.0497571229934692 6.577256679534912 40 40 40
1.9459136724472046 -2.442326307296753 5.356894493103027 143 143 143
1.970428228378296 -2.490399122238159 5.33176851272583 38 38 38
1.970428228378296 -2.490399122238159 5.33176851272583 38 38 38
2.395711660385132 -1.015084147453308 6.479675769805908 151 151 151
1.9756351709365845 -3.05098295211792 5.285545349121094 7 7 7
1.9862151145935059 -2.446979522705078 5.310232639312744 133 133 133
1.9805715084075928 -3.0363376140594482 5.226281642913818 114 114 114
1.980383038520813 -3.093039035797119 5.202333927154541 95 95 95
2.447866201400757 -1.0754131078720093 6.394418239593506 155 155 155
2.447866201400757 -1.0754131078720093 6.394418239593506 155 155 155
2.4647624492645264 -1.0410593748092651 6.371731758117676 30 30 30
2.4647624492645264 -1.0410593748092651 6.371731758117676 30 30 30
2.475682258605957 -0.9806751012802124 6.394079685211182 31 31 31
2.475682258605957 -0.9806751012802124 6.394079685211182 31 31 31
2.477088212966919 -1.0934087038040161 6.3667311668396 32 32 32
2.02815842628479 -2.9970381259918213 5.201636791229248 119 119 119
2.4908902645111084 -1.0194642543792725 6.348329067230225 153 153 153
2.5008528232574463 -1.0448105335235596 6.296345233917236 28 28 28
2.503091335296631 -1.1070716381072998 6.284226894378662 32 32 32
2.5155608654022217 0.15723998844623566 6.3118720054626465 159 159 159
2.0558812618255615 -2.4247589111328125 5.116629123687744 125 125 125
2.0558812618255615 -2.4247589111328125 5.116629123687744 125 125 125
2.143770694732666 -2.4833016395568848 5.007433891296387 125 125 125
2.290958881378174 1.661932349205017 5.1609063148498535 55 55 55
2.2844014167785645 1.5037387609481812 5.141312599182129 112 112 112
2.2849645614624023 0.8245751857757568 5.093546390533447 48 48 48
2.2401154041290283 -2.3628318309783936 4.869719505310059 33 33 33
2.2401154041290283 -2.3628318309783936 4.869719505310059 33 33 33
2.2770118713378906 -1.1227893829345703 4.8749098777771 102 102 102
2.330296516418457 -0.4277050197124481 4.984217643737793 142 142 142
2.334348201751709 -0.42930641770362854 4.940388202667236 19 19 19
2.3119430541992188 -0.9219653010368347 4.88260555267334 26 26 26
2.282965660095215 -1.693474292755127 4.818376541137695 122 122 122
2.3134219646453857 -1.168521523475647 4.860248565673828 29 29 29
