ply
format ascii 1.0
element vertex 31
property float x
property float y
property float z
property uchar red
property uchar green
property uchar blue
end_header
-0.6521264910697937 0.172011137008667 1.5016920566558838 115 115 115
-0.6489124894142151 0.18229436874389648 1.502416729927063 135 135 135
-0.6641691327095032 -0.4455251097679138 1.5493806600570679 222 222 222
-0.5910348296165466 -0.5412793755531311 1.5226044654846191 103 103 103
-0.5602366924285889 0.41073402762413025 1.5547319650650024 106 106 106
-0.5238447785377502 -0.6282742619514465 1.566197156906128 124 124 124
-0.5243057012557983 0.39273300766944885 1.5724096298217773 72 72 72
-0.5180612206459045 0.35880768299102783 1.5830676555633545 61 61 61
-0.5180612206459045 0.35880768299102783 1.5830676555633545 61 61 61
-0.5449696183204651 0.10290741920471191 1.6734108924865723 73 73 73
-0.5019286870956421 0.33024516701698303 1.5901591777801514 0 0 0
-0.47549164295196533 0.6396433115005493 1.5988043546676636 92 92 92
-0.4708685278892517 0.3727624714374542 1.6057287454605103 3 3 3
-0.5329610705375671 0.03587798401713371 1.864603877067566 143 143 143
-0.4634949564933777 -0.23704025149345398 1.6831414699554443 101 101 101
-0.4471847712993622 0.45052072405815125 1.625262975692749 94 94 94
-0.4452463388442993 0.346998006105423 1.6288387775421143 120 120 120
-0.4281565546989441 0.22910349071025848 1.6346213817596436 31 31 31
-0.43792182207107544 -0.4890327751636505 1.7120308876037598 18 18 18
-0.3913749158382416 -0.128860741853714 1.5832786560058594 7 7 7
-0.4041386544704437 0.33670222759246826 1.648872971534729 164 164 164
-0.40335968136787415 0.23046204447746277 1.6500333547592163 40 40 40
-0.382671982049942 -0.1298745721578598 1.5699976682662964 202 202 202
-0.382671982049942 -0.1298745721578598 1.5699976682662964 202 202 202
-0.3846997618675232 0.30184295773506165 1.663552165031433 51 51 51
-0.3778493404388428 0.17882664501667023 1.6627898216247559 59 59 59
-0.36460304260253906 0.24998003244400024 1.667563557624817 37 37 37
-0.36105912923812866 0.28344911336898804 1.68242347240448 16 16 16
-0.36760300397872925 0.09416169673204422 1.7670307159423828 115 115 115
-0.34147611260414124 0.39927417039871216 1.6879035234451294 130 130 130
-0.315716415643692 0.35028600692749023 1.7009000778198242 125 125 125
