ply
format ascii 1.0
element vertex 7
property float x
property float y
property float z
property uchar red
property uchar green
property uchar blue
end_header
-3.593165874481201 -0.13873179256916046 10.521018028259277 114 114 114
-9.36263656616211 8.021167755126953 28.838138580322266 36 36 36
-1.927035927772522 -0.1455617994070053 5.939370632171631 20 20 20
-9.216096878051758 4.719455242156982 28.400146484375 120 120 120
-4.610441207885742 0.43832460045814514 14.380535125732422 48 48 48
-8.663870811462402 8.788766860961914 26.93126106262207 145 145 145
-2.9708170890808105 0.33999618887901306 10.669464111328125 135 135 135
