ply
format ascii 1.0
element vertex 30
property float x
property float y
property float z
property uchar red
property uchar green
property uchar blue
end_header
-0.1806071251630783 -0.23246069252490997 0.6104131937026978 41 41 41
0.849120557308197 0.704790472984314 2.924633026123047 122 122 122
0.8865577578544617 0.6334688663482666 2.886651039123535 145 145 145
0.9129683971405029 0.7027475833892822 2.889169931411743 132 132 132
0.9561724066734314 0.26439476013183594 2.887263298034668 115 115 115
0.9569916725158691 0.7288661003112793 2.8742623329162598 134 134 134
0.9501733779907227 0.6139074563980103 2.8433847427368164 131 131 131
0.9635359644889832 0.5763189792633057 2.839456558227539 10 10 10
0.9687216877937317 0.5959494113922119 2.8307137489318848 125 125 125
1.0054324865341187 0.23051872849464417 2.8448896408081055 61 61 61
1.0467010736465454 1.1663460731506348 2.938011407852173 109 109 109
1.0104036331176758 0.602578341960907 2.815333127975464 129 129 129
0.9169870615005493 -0.8945915102958679 2.503297805786133 184 184 184
1.068055510520935 0.22741007804870605 2.7941372394561768 130 130 130
1.0726836919784546 0.6167647838592529 2.7690370082855225 143 143 143
1.1096892356872559 0.2315140813589096 2.844207286834717 87 87 87
1.0950345993041992 0.5762572884559631 2.779433488845825 32 32 32
1.1125428676605225 0.6974067687988281 2.78751277923584 95 95 95
1.1085379123687744 0.5847162008285522 2.7747652530670166 51 51 51
1.1427589654922485 0.7765886783599854 2.8095028400421143 121 121 121
1.1367521286010742 0.7033142447471619 2.7832071781158447 45 45 45
1.1367521286010742 0.7033142447471619 2.7832071781158447 45 45 45
1.1310440301895142 0.6086183786392212 2.7561326026916504 126 126 126
1.137699007987976 0.7079887390136719 2.766932487487793 51 51 51
1.137699007987976 0.7079887390136719 2.766932487487793 51 51 51
1.1380611658096313 0.5528231859207153 2.747807502746582 82 82 82
1.1697026491165161 0.2396196573972702 2.7832539081573486 66 66 66
1.223252773284912 0.6192412972450256 2.7285337448120117 96 96 96
1.2440590858459473 0.6234537959098816 2.723478078842163 96 96 96
1.2991880178451538 0.5797489881515503 2.696187734603882 21 21 21
