ply
format ascii 1.0
element vertex 20
property float x
property float y
property float z
property uchar red
property uchar green
property uchar blue
end_header
-0.07203443348407745 -0.3736300766468048 2.1496732234954834 64 64 64
-0.06825131177902222 -0.043687108904123306 2.1572840213775635 61 61 61
-0.06397973001003265 -0.33328482508659363 2.159160852432251 26 26 26
-0.04707653820514679 -0.7332573533058167 2.158475637435913 57 57 57
-0.0403357557952404 0.11644883453845978 2.155397891998291 121 121 121
-0.03914570435881615 0.27331793308258057 2.1553728580474854 116 116 116
-0.039404526352882385 0.5013707280158997 2.1616501808166504 107 107 107
-0.03289223462343216 -0.6747913956642151 2.174884796142578 216 216 216
-0.006912317126989365 -0.7196793556213379 2.1691272258758545 60 60 60
-0.0019389656372368336 -0.7066792249679565 2.171107053756714 62 62 62
0.006211715750396252 -0.14068181812763214 2.1692991256713867 136 136 136
0.006211715750396252 -0.14068181812763214 2.1692991256713867 136 136 136
0.1575554609298706 0.06678499281406403 2.237255573272705 39 39 39
0.15691061317920685 0.21517007052898407 2.2315866947174072 50 50 50
0.16068555414676666 0.10935819149017334 2.2254369258880615 59 59 59
0.18017274141311646 0.17903949320316315 2.220093250274658 125 125 125
0.20248693227767944 0.10021252185106277 2.1851866245269775 132 132 132
0.23792506754398346 0.10880942642688751 2.1865460872650146 35 35 35
0.2477627396583557 0.09874192625284195 2.1810946464538574 109 109 109
0.4340900182723999 -0.20870248973369598 0.9730608463287354 109 109 109
