ply
format ascii 1.0
element vertex 7
property float x
property float y
property float z
property uchar red
property uchar green
property uchar blue
end_header
7.095299199362225e-17 3.7395022313619665e-17 1.2444478888535724e-15 119 119 119
7.137264387942755e-17 3.717000602594809e-17 1.2457140972305992e-15 119 119 119
2.598284153614407e-16 -2.813784952565866e-16 1.947932468470792e-15 66 66 66
0.28578975796699524 0.10958230495452881 1.038314938545227 33 33 33
3.251693723650561e-18 1.7968399754192112e-16 4.848284770581199e-16 142 142 142
1.9908802185788597e-18 1.801905497141588e-16 4.754292171402349e-16 137 137 137
-1.7748786279409488e-17 1.8529270561150427e-16 3.4800110409926514e-16 61 61 61
