ply
format ascii 1.0
element vertex 21
property float x
property float y
property float z
property uchar red
property uchar green
property uchar blue
end_header
-0.8231992721557617 1.3591997623443604 2.646311044692993 24 24 24
-0.7562713623046875 -0.8617513179779053 2.5157065391540527 123 123 123
-0.735969066619873 -0.8966116309165955 2.518841028213501 123 123 123
-0.737330436706543 -0.7098672986030579 2.5279200077056885 106 106 106
-0.7040650248527527 -0.888014018535614 2.5335192680358887 26 26 26
-0.6949895620346069 1.4732786417007446 2.8540751934051514 80 80 80
-0.6914116740226746 1.466868281364441 2.8640546798706055 14 14 14
-0.6914116740226746 1.466868281364441 2.8640546798706055 14 14 14
-0.6528887748718262 1.1261500120162964 2.8995654582977295 21 21 21
-0.5422968864440918 -0.5331602096557617 3.1174333095550537 33 33 33
-0.5131245851516724 -0.8265110850334167 3.1278302669525146 69 69 69
-0.4557179808616638 1.4426425695419312 3.231628179550171 22 22 22
-0.4557179808616638 1.4426425695419312 3.231628179550171 22 22 22
-0.426719069480896 -0.860688328742981 3.0587024688720703 84 84 84
-0.4337751567363739 0.22370456159114838 3.117759943008423 93 93 93
-0.407315731048584 -0.4893442690372467 3.0743184089660645 31 31 31
-0.3961140215396881 0.2749582529067993 3.175743341445923 103 103 103
-0.3961140215396881 0.2749582529067993 3.175743341445923 103 103 103
1.3060792684555054 -0.48884856700897217 5.8641886711120605 94 94 94
1.3792527914047241 -0.9711665511131287 5.920807838439941 96 96 96
1.4447535276412964 -0.4883391261100769 6.060503959655762 108 108 108
