ply
format ascii 1.0
element vertex 26
property float x
property float y
property float z
property uchar red
property uchar green
property uchar blue
end_header
-0.8597565293312073 -0.6598270535469055 2.0292391777038574 134 134 134
-0.7806295156478882 -0.6453701853752136 1.8931269645690918 113 113 113
-0.7543660402297974 -0.634251594543457 1.870667576789856 132 132 132
-0.6801069378852844 1.1850007772445679 1.8295133113861084 10 10 10
-0.6760756969451904 1.1977930068969727 1.8296563625335693 70 70 70
-0.6033380031585693 -0.4313003718852997 1.698446273803711 75 75 75
-0.6069430112838745 -0.3107244670391083 1.7125815153121948 24 24 24
-0.5971519947052002 -0.42472097277641296 1.7076764106750488 14 14 14
-0.5971519947052002 -0.42472097277641296 1.7076764106750488 14 14 14
-0.5375276207923889 -0.21312391757965088 1.7592171430587769 74 74 74
-0.5319555997848511 -0.11031670868396759 1.7726205587387085 83 83 83
-0.5347039103507996 1.0927454233169556 1.8923649787902832 88 88 88
-0.4840995669364929 -0.41709259152412415 1.7639434337615967 13 13 13
-0.4686044752597809 0.28920555114746094 1.8443567752838135 116 116 116
-0.42120087146759033 0.20529109239578247 1.8516108989715576 87 87 87
-0.33629530668258667 -0.5089759826660156 1.8249083757400513 73 73 73
-0.3279625177383423 -0.722341001033783 1.8049564361572266 14 14 14
-0.3226853013038635 0.39735740423202515 1.9222415685653687 73 73 73
-0.3127736449241638 0.28077808022499084 1.911431074142456 11 11 11
-0.23838695883750916 0.20006875693798065 1.9388982057571411 91 91 91
-0.20700885355472565 -0.11444785445928574 1.9241191148757935 17 17 17
-0.1432751566171646 -0.21099235117435455 1.9490611553192139 12 12 12
0.053318191319704056 -0.20675887167453766 2.0406434535980225 15 15 15
0.29739144444465637 0.7749951481819153 2.2474210262298584 4 4 4
0.3377344608306885 0.29695168137550354 2.2194297313690186 59 59 59
0.5161265730857849 -0.19609394669532776 2.2577195167541504 53 53 53
