ply
format ascii 1.0
element vertex 33
property float x
property float y
property float z
property uchar red
property uchar green
property uchar blue
end_header
-0.7408449053764343 0.33229711651802063 1.704710602760315 100 100 100
-0.6811749935150146 -0.5959724187850952 1.6785489320755005 102 102 102
-0.7036287188529968 0.18281100690364838 1.7459083795547485 80 80 80
-0.7071788311004639 0.16229262948036194 1.764631986618042 38 38 38
-0.6307563185691833 0.39201706647872925 1.7586109638214111 118 118 118
-0.6254500150680542 0.40246492624282837 1.7603917121887207 143 143 143
-0.6042376160621643 0.3742660582065582 1.7742881774902344 39 39 39
-0.6747936606407166 0.053104232996702194 2.0105199813842773 111 111 111
-0.5669862031936646 0.26904869079589844 1.7877771854400635 23 23 23
-0.531844973564148 0.4706590175628662 1.8107550144195557 100 100 100
-0.5282003879547119 0.513709306716919 1.8157553672790527 104 104 104
-0.523628294467926 0.39806419610977173 1.8158092498779297 118 118 118
-0.5087999105453491 0.2749255299568176 1.8156394958496094 71 71 71
-0.4851112961769104 0.3700708746910095 1.831617832183838 35 35 35
-0.48682573437690735 -0.5500971078872681 1.8557325601577759 77 77 77
-0.4818843603134155 0.5927010774612427 1.8471064567565918 24 24 24
-0.47556087374687195 0.3870418965816498 1.8337528705596924 133 133 133
-0.47863590717315674 -0.5321699976921082 1.8646440505981445 19 19 19
-0.4563022255897522 0.36576998233795166 1.8412518501281738 97 97 97
-0.4563022255897522 0.36576998233795166 1.8412518501281738 97 97 97
-0.4552980065345764 0.5617236495018005 1.8495981693267822 103 103 103
-0.4503159821033478 0.3472296893596649 1.8453152179718018 44 44 44
-0.44319477677345276 0.21113495528697968 1.8427650928497314 57 57 57
-0.4459049105644226 0.36323657631874084 1.8532791137695312 83 83 83
-0.4323921501636505 0.32688695192337036 1.856593132019043 13 13 13
-0.4030725657939911 0.45652133226394653 1.8727538585662842 129 129 129
-0.40098923444747925 0.18184754252433777 1.8938978910446167 117 117 117
-0.37463945150375366 0.3254431486129761 1.8780838251113892 22 22 22
-0.3723055124282837 0.4030742645263672 1.8833177089691162 125 125 125
-0.3639907240867615 0.16021929681301117 1.9218225479125977 60 60 60
-0.3284575343132019 0.5676822662353516 1.9138513803482056 54 54 54
-0.3284575343132019 0.5676822662353516 1.9138513803482056 54 54 54
0.2003651112318039 0.001874293782748282 1.1459707021713257 146 146 146
