ply
format ascii 1.0
element vertex 8
property float x
property float y
property float z
property uchar red
property uchar green
property uchar blue
end_header
-2.563115119934082 -3.0563111305236816 48.63779067993164 87 87 87
-0.925554096698761 -0.660749077796936 17.929048538208008 79 79 79
-2.1894779205322266 3.952108383178711 44.58514404296875 38 38 38
-1.7536628246307373 3.578016519546509 43.56053161621094 84 84 84
1.3725489377975464 3.9814400672912598 47.71115493774414 31 31 31
4.222850799560547 -2.353238582611084 49.133026123046875 25 25 25
4.0916972160339355 -1.8487015962600708 47.50907897949219 27 27 27
5.516387939453125 -3.2247486114501953 44.488033294677734 140 140 140
