ply
format ascii 1.0
element vertex 13
property float x
property float y
property float z
property uchar red
property uchar green
property uchar blue
end_header
-20.23818016052246 27.067930221557617 41.704017639160156 103 103 103
-13.653105735778809 13.10216999053955 28.841140747070312 22 22 22
-11.62806224822998 7.230655670166016 26.257104873657227 108 108 108
-17.795269012451172 15.42569351196289 42.69108963012695 136 136 136
-15.808528900146484 13.927728652954102 38.41472244262695 21 21 21
-16.69928550720215 15.319128036499023 40.66056823730469 23 23 23
-15.349894523620605 10.11852741241455 39.00408172607422 130 130 130
-15.769378662109375 16.518766403198242 40.85197830200195 20 20 20
-14.806173324584961 15.780296325683594 38.8266716003418 105 105 105
-15.174849510192871 18.204896926879883 40.336090087890625 24 24 24
-13.858722686767578 13.273990631103516 43.907894134521484 23 23 23
-9.698230743408203 8.802695274353027 39.28670120239258 63 63 63
-9.424864768981934 7.819703578948975 45.1200065612793 55 55 55
