ply
format ascii 1.0
element vertex 22
property float x
property float y
property float z
property uchar red
property uchar green
property uchar blue
end_header
-0.2009444236755371 -0.06002096086740494 0.42710989713668823 21 21 21
-0.2009444236755371 -0.06002096086740494 0.42710989713668823 21 21 21
0.39005976915359497 0.35390228033065796 1.176048755645752 127 127 127
0.41772252321243286 0.35305729508399963 1.1523138284683228 137 137 137
0.4195535182952881 0.5114420056343079 1.148057460784912 52 52 52
0.43836867809295654 0.3135741949081421 1.1344752311706543 130 130 130
0.4443807303905487 0.33126914501190186 1.1270642280578613 54 54 54
0.44622084498405457 0.30525627732276917 1.1268534660339355 123 123 123
0.4782695174217224 0.10896912962198257 1.166977882385254 255 255 255
0.47526419162750244 0.1305527240037918 1.1399818658828735 64 64 64
0.49153003096580505 -0.4033994972705841 1.1594630479812622 22 22 22
0.4853367507457733 0.5528940558433533 1.083211898803711 104 104 104
0.4952070713043213 0.336750864982605 1.0856573581695557 46 46 46
0.5134536623954773 -0.4732309877872467 1.1051052808761597 145 145 145
0.5006783604621887 0.34990862011909485 1.0764830112457275 112 112 112
0.5053619146347046 0.29887163639068604 1.0784611701965332 38 38 38
0.5059118866920471 0.28823891282081604 1.0779207944869995 109 109 109
0.5063753724098206 0.384170800447464 1.0726280212402344 125 125 125
0.5102207064628601 0.35270625352859497 1.0693612098693848 53 53 53
0.5102207064628601 0.35270625352859497 1.0693612098693848 53 53 53
0.5134861469268799 0.31024011969566345 1.0659868717193604 107 107 107
0.5162913203239441 0.2840784788131714 1.0628139972686768 97 97 97
