ply
format ascii 1.0
element vertex 8
property float x
property float y
property float z
property uchar red
property uchar green
property uchar blue
end_header
-7.0341949462890625 -0.6861887574195862 30.517993927001953 34 34 34
0.06728237122297287 -0.207331582903862 3.622465133666992 115 115 115
0.06728237122297287 -0.207331582903862 3.622465133666992 115 115 115
0.340623676776886 -0.13514579832553864 16.966266632080078 109 109 109
1.5513439178466797 -0.4790499210357666 25.232927322387695 50 50 50
1.7747875452041626 -2.3802685737609863 28.900930404663086 55 55 55
2.4643399715423584 -2.2730090618133545 31.706830978393555 49 49 49
3.3624982833862305 -1.698166847229004 33.277099609375 139 139 139
