ply
format ascii 1.0
element vertex 7
property float x
property float y
property float z
property uchar red
property uchar green
property uchar blue
end_header
-0.07798989862203598 -0.2113257646560669 0.4968906044960022 82 82 82
0.014751819893717766 0.015849707648158073 0.18217256665229797 106 106 106
0.01833617314696312 0.017496701329946518 0.17455855011940002 109 109 109
0.020972872152924538 0.0186939537525177 0.1689288318157196 93 93 93
0.07988353818655014 -0.09200061857700348 0.2321292757987976 58 58 58
0.08291826397180557 -0.09092811495065689 0.2264624685049057 73 73 73
0.09633810818195343 -0.08636993914842606 0.20126767456531525 78 78 78
