ply
format ascii 1.0
element vertex 29
property float x
property float y
property float z
property uchar red
property uchar green
property uchar blue
end_header
-0.09396661072969437 -0.056769900023937225 0.242487832903862 111 111 111
-0.011853697709739208 0.0030872791539877653 0.03170441836118698 99 99 99
2.256495983243693e-15 -1.559825995445371e-15 1.9785786710738683e-14 248 248 248
3.3120269374975865e-15 -5.388902808012427e-15 2.3978850521399857e-14 246 246 246
3.3644972404482014e-15 -5.701805672574112e-15 2.430954912466688e-14 175 175 175
2.502996546938324e-15 9.7522132530499e-16 1.7298913224193108e-14 213 213 213
2.424754207776313e-15 1.5315375302268007e-15 1.67137015490669e-14 155 155 155
2.364372617098343e-15 1.9842814050945526e-15 1.623786723841964e-14 165 165 165
2.5540726336577583e-15 7.30930299992831e-16 1.7558037543417143e-14 153 153 153
3.1826180908490218e-15 -3.596667065466474e-15 2.2113002957056295e-14 254 254 254
3.1938645708061908e-15 -3.606255054912919e-15 2.2124268495254777e-14 253 253 253
4.182350961460775e-15 -1.039574886406696e-14 2.927069732970057e-14 230 230 230
4.153391328510624e-15 -1.003893792910198e-14 2.8897562375776106e-14 162 162 162
4.059170348073371e-15 -9.379175496156134e-15 2.820330706715217e-14 235 235 235
5.192938771049829e-15 -1.702597210353346e-14 3.625374875521406e-14 144 144 144
4.661326493792927e-15 -1.3327786445272664e-14 3.236184242675147e-14 214 214 214
6.422813669804128e-15 -2.514231464895763e-14 4.4799504817644165e-14 131 131 131
0.0077216667123138905 -0.0073082768358290195 0.033943306654691696 81 81 81
0.007983005605638027 -0.005988337565213442 0.032457951456308365 20 20 20
2.918167628452651e-15 4.075579070327582e-15 1.392548931527203e-14 254 254 254
0.005841350648552179 0.006661884021013975 0.019781390205025673 101 101 101
0.005874670576304197 0.006747410632669926 0.01968381740152836 114 114 114
0.005943621508777142 0.006895327940583229 0.019509609788656235 137 137 137
3.0926284634997777e-15 4.9212961518983224e-15 1.2874596713437301e-14 254 254 254
3.112654016438764e-15 4.968128603552013e-15 1.2806921322050524e-14 255 255 255
3.1742318293964938e-15 4.718519428940958e-15 1.3051449569527473e-14 254 254 254
6.131240365403728e-15 -8.608053641634764e-15 2.5457085644684484e-14 103 103 103
0.006340432912111282 0.006858802866190672 0.019393999129533768 137 137 137
6.220624364195685e-15 -8.17933384461263e-15 2.4397999693150964e-14 112 112 112
