ply
format ascii 1.0
element vertex 20
property float x
property float y
property float z
property uchar red
property uchar green
property uchar blue
end_header
-0.7306931018829346 0.09779123216867447 1.4886637926101685 19 19 19
-0.6744031310081482 -0.12157083302736282 1.500176191329956 66 66 66
-0.6705565452575684 0.2530919909477234 1.544144868850708 17 17 17
-0.5605844855308533 0.10018591582775116 1.577629804611206 19 19 19
-0.46441230177879333 -0.19329066574573517 1.6091331243515015 21 21 21
-0.44043657183647156 -0.3815564811229706 1.605685830116272 13 13 13
-0.4473879039287567 -0.01497817412018776 1.6324880123138428 11 11 11
-0.4428984224796295 -0.11126557737588882 1.6275522708892822 16 16 16
-0.4241761863231659 0.26083648204803467 1.6692291498184204 116 116 116
-0.3981216847896576 -0.2916026711463928 1.6364582777023315 11 11 11
-0.38175079226493835 0.18592560291290283 1.6781620979309082 87 87 87
-0.38175079226493835 0.18592560291290283 1.6781620979309082 87 87 87
-0.3445650041103363 -0.014453175477683544 1.6848450899124146 12 12 12
-0.32819023728370667 -0.2013450711965561 1.6847339868545532 12 12 12
-0.29319119453430176 0.3605004847049713 1.7462316751480103 73 73 73
-0.23042015731334686 0.06532562524080276 1.7474863529205322 61 61 61
-0.2171318233013153 0.1825484335422516 1.766170620918274 91 91 91
-0.2163083255290985 0.17638462781906128 1.766700029373169 99 99 99
-0.2108096480369568 -0.10637366771697998 1.7490185499191284 15 15 15
-0.1761164367198944 -0.29627037048339844 1.7490758895874023 60 60 60
