ply
format ascii 1.0
element vertex 20
property float x
property float y
property float z
property uchar red
property uchar green
property uchar blue
end_header
-0.3310341536998749 -0.02855045162141323 1.6131705045700073 124 124 124
-0.29354241490364075 -0.20699943602085114 1.6367191076278687 130 130 130
-0.29354241490364075 -0.20699943602085114 1.6367191076278687 130 130 130
-0.29354241490364075 -0.20699943602085114 1.6367191076278687 130 130 130
-0.218263179063797 0.22168736159801483 1.7965114116668701 134 134 134
-0.21778695285320282 0.10177052766084671 1.8260728120803833 133 133 133
-0.1805812567472458 0.14697380363941193 1.8440169095993042 189 189 189
-0.17030814290046692 0.2786562740802765 1.8700987100601196 113 113 113
-0.12948599457740784 -0.7127411365509033 1.8076741695404053 40 40 40
-0.13165141642093658 0.17058546841144562 1.908617615699768 56 56 56
-0.11549954861402512 -0.7186139225959778 1.829829216003418 41 41 41
-0.09435832500457764 -0.6239214539527893 1.8607354164123535 147 147 147
-0.08886577188968658 -0.7182452082633972 1.8367949724197388 37 37 37
-0.0701037272810936 -0.05351320654153824 1.966920018196106 112 112 112
-0.05820511654019356 -0.5918232202529907 1.9114619493484497 80 80 80
-0.05164323374629021 -0.7338091731071472 1.8324766159057617 3 3 3
-0.04016229882836342 -0.4297410547733307 1.9547103643417358 114 114 114
-0.031157881021499634 -0.51710045337677 1.9611246585845947 87 87 87
0.32280173897743225 0.22487519681453705 1.7687751054763794 114 114 114
0.4360477924346924 0.22010697424411774 1.7293621301651 126 126 126
