ply
format ascii 1.0
element vertex 22
property float x
property float y
property float z
property uchar red
property uchar green
property uchar blue
end_header
-21.11161994934082 4.715819358825684 44.103721618652344 43 43 43
-21.07936668395996 -7.5304436683654785 44.29166030883789 32 32 32
-20.128223419189453 -2.075826644897461 42.80999755859375 122 122 122
-22.000572204589844 -7.994541168212891 47.037750244140625 35 35 35
-21.32648277282715 -7.472925186157227 46.31809616088867 31 31 31
-17.95329475402832 -6.578444957733154 39.00898742675781 37 37 37
-19.664091110229492 -4.916687488555908 43.059844970703125 31 31 31
-19.489398956298828 -0.06283991783857346 42.90483093261719 45 45 45
-19.63328742980957 -4.661823272705078 43.465675354003906 121 121 121
-18.688209533691406 -2.2837324142456055 41.6080207824707 41 41 41
-18.688209533691406 -2.2837324142456055 41.6080207824707 41 41 41
-16.46251678466797 -1.7848281860351562 37.34670639038086 117 117 117
-19.497337341308594 4.823924541473389 45.53899002075195 60 60 60
-17.445436477661133 -2.4502885341644287 41.47066116333008 37 37 37
-20.406164169311523 6.919527053833008 48.87668991088867 121 121 121
-19.221860885620117 5.482080459594727 46.05891418457031 124 124 124
-18.660900115966797 -0.047297000885009766 44.90977096557617 52 52 52
-19.806486129760742 7.747588157653809 49.64828109741211 34 34 34
-17.907224655151367 4.976389408111572 45.273963928222656 145 145 145
-4.204646110534668 5.505899906158447 10.996618270874023 19 19 19
-18.403011322021484 5.583292007446289 48.243614196777344 130 130 130
-14.94761848449707 0.16119474172592163 40.84006118774414 131 131 131
