ply
format ascii 1.0
element vertex 32
property float x
property float y
property float z
property uchar red
property uchar green
property uchar blue
end_header
-2.018024444580078 -0.8045951724052429 4.235711574554443 25 25 25
-2.1979010105133057 -0.9326969385147095 5.164473533630371 36 36 36
-2.2415263652801514 -0.7376924157142639 5.400760650634766 118 118 118
-2.2785823345184326 -0.44038450717926025 5.806337833404541 129 129 129
-2.2629358768463135 -0.49161532521247864 5.793152332305908 39 39 39
-2.2596914768218994 -0.22667324542999268 5.829646587371826 90 90 90
-2.2335336208343506 -0.5595406889915466 5.813708782196045 144 144 144
-1.6839179992675781 -1.1474614143371582 4.493270397186279 251 251 251
-2.16636061668396 -0.566697359085083 5.834078311920166 26 26 26
-2.135305643081665 -0.5475321412086487 5.840090751647949 30 30 30
-2.1075241565704346 -0.4816332757472992 5.8002190589904785 154 154 154
-2.1075241565704346 -0.4816332757472992 5.8002190589904785 154 154 154
-2.094290018081665 -0.563244640827179 5.836531639099121 157 157 157
-2.0534915924072266 -0.2865511476993561 5.749869346618652 212 212 212
-2.0590341091156006 -0.3542652726173401 5.81741189956665 107 107 107
-2.005131483078003 -0.501775860786438 5.7703986167907715 20 20 20
-1.9560027122497559 -0.42088037729263306 5.7765679359436035 85 85 85
-1.959186315536499 -0.4458696246147156 5.840616226196289 31 31 31
-1.7381235361099243 -0.2864791452884674 5.48057222366333 125 125 125
-0.8028996586799622 0.042563825845718384 3.4898788928985596 9 9 9
-0.6841362118721008 0.5520168542861938 3.4902539253234863 20 20 20
-0.6156876683235168 0.5748031735420227 3.5062294006347656 70 70 70
0.44531548023223877 0.46845847368240356 1.8391183614730835 26 26 26
0.4198996126651764 -0.28432974219322205 1.7279763221740723 35 35 35
0.4338178038597107 -0.17924749851226807 1.7437411546707153 68 68 68
0.4340069890022278 -0.286247581243515 1.7339681386947632 42 42 42
0.44227126240730286 -0.10949305444955826 1.762001395225525 35 35 35
0.43541213870048523 -0.37455156445503235 1.724825143814087 30 30 30
0.4474700391292572 -0.1856369972229004 1.7497142553329468 103 103 103
0.4474700391292572 -0.1856369972229004 1.7497142553329468 103 103 103
0.43976861238479614 -0.6429383158683777 1.6872130632400513 131 131 131
0.4428686201572418 -0.5497050881385803 1.6966798305511475 44 44 44
