ply
format ascii 1.0
element vertex 39
property float x
property float y
property float z
property uchar red
property uchar green
property uchar blue
end_header
-0.987957775592804 0.11233572661876678 2.2338755130767822 168 168 168
-0.9789206385612488 0.15028075873851776 2.2444207668304443 74 74 74
-0.9293200969696045 -0.7819229364395142 2.16188383102417 96 96 96
-0.9395306706428528 0.21503688395023346 2.241745948791504 101 101 101
-0.8688364028930664 0.4861549735069275 2.2368004322052 67 67 67
-0.8462522625923157 0.4816949665546417 2.242982864379883 116 116 116
-0.8317327499389648 0.5549899935722351 2.247220516204834 66 66 66
-0.8140909075737 0.46115848422050476 2.262948513031006 35 35 35
-0.776648998260498 0.5222941637039185 2.273050546646118 140 140 140
-0.771772027015686 0.24858909845352173 2.2700908184051514 59 59 59
-0.762328028678894 0.3245164752006531 2.2702362537384033 21 21 21
-0.8543996214866638 0.009263521991670132 2.5557737350463867 254 254 254
-0.7565698027610779 0.48904839158058167 2.2818245887756348 104 104 104
-0.7495611310005188 0.5284971594810486 2.279695749282837 11 11 11
-0.7176212668418884 0.48095494508743286 2.2935638427734375 119 119 119
-0.7121918797492981 0.6415832042694092 2.303680658340454 95 95 95
-0.7073987126350403 0.493186354637146 2.3040719032287598 117 117 117
-0.7039386034011841 0.5199925899505615 2.2960925102233887 113 113 113
-0.6868859529495239 0.3342415392398834 2.29905366897583 69 69 69
-0.6698205471038818 0.48792287707328796 2.311227798461914 65 65 65
-0.714913010597229 -0.07190456986427307 2.49373197555542 51 51 51
-0.655813992023468 0.4569912552833557 2.3171491622924805 35 35 35
-0.6487001180648804 0.47003307938575745 2.331909418106079 38 38 38
-0.6209193468093872 0.4535866975784302 2.329364776611328 85 85 85
-0.6209193468093872 0.4535866975784302 2.329364776611328 85 85 85
-0.6132387518882751 0.4295637607574463 2.33441162109375 50 50 50
-0.6138560771942139 0.7038668394088745 2.334184169769287 104 104 104
-0.6019890904426575 0.25277000665664673 2.325672149658203 60 60 60
-0.6032728552818298 0.5727522373199463 2.33994197845459 113 113 113
-0.5851978659629822 -1.0016462802886963 2.287702798843384 125 125 125
-0.5664405822753906 0.5180243253707886 2.3472912311553955 146 146 146
-0.546914279460907 0.43167275190353394 2.350318193435669 116 116 116
-0.5490089058876038 0.5718087553977966 2.362966537475586 123 123 123
-0.5205439925193787 0.4618609547615051 2.3738298416137695 92 92 92
-0.5218087434768677 0.14700226485729218 2.4298248291015625 254 254 254
-0.5083842873573303 0.5028720498085022 2.3715476989746094 129 129 129
-0.48883870244026184 0.46235889196395874 2.3752501010894775 120 120 120
-0.43932682275772095 0.7298524379730225 2.406287670135498 109 109 109
-0.1946401298046112 -0.28854045271873474 1.0842889547348022 95 95 95
