ply
format ascii 1.0
element vertex 20
property float x
property float y
property float z
property uchar red
property uchar green
property uchar blue
end_header
-2.570863962173462 -0.04528752714395523 8.799057960510254 121 121 121
-1.9544861316680908 1.1676650047302246 7.650679588317871 126 126 126
-1.9544861316680908 1.1676650047302246 7.650679588317871 126 126 126
-1.7351564168930054 -2.0465705394744873 7.049598217010498 112 112 112
-1.7153500318527222 -0.9469537734985352 7.120871067047119 123 123 123
-1.7153500318527222 -0.9469537734985352 7.120871067047119 123 123 123
-1.019333004951477 0.0627773255109787 5.162632942199707 138 138 138
-1.019333004951477 0.0627773255109787 5.162632942199707 138 138 138
-0.6713682413101196 0.6514344811439514 4.343627452850342 130 130 130
-0.49587318301200867 0.3924521505832672 4.017308235168457 180 180 180
-0.4026549160480499 -1.5018056631088257 3.5301265716552734 144 144 144
-0.3249756991863251 -1.3618024587631226 3.3338239192962646 106 106 106
-0.31944677233695984 -1.209699034690857 3.3481202125549316 101 101 101
-0.29025304317474365 -0.2304229438304901 3.2664051055908203 42 42 42
-0.20806284248828888 -1.096685767173767 3.0698537826538086 37 37 37
-0.19145260751247406 -1.0213115215301514 3.041039228439331 102 102 102
-0.1747475117444992 -1.0557371377944946 2.982966899871826 86 86 86
-0.14269590377807617 -0.07266248762607574 2.9069604873657227 115 115 115
-0.1452416330575943 0.24570207297801971 2.9758963584899902 140 140 140
-0.1154090017080307 0.2452901303768158 2.936920404434204 57 57 57
