ply
format ascii 1.0
element vertex 11
property float x
property float y
property float z
property uchar red
property uchar green
property uchar blue
end_header
-0.014789030887186527 -0.018734194338321686 0.3458958864212036 224 224 224
0.07193208485841751 -0.14009708166122437 0.8056445121765137 24 24 24
0.07308338582515717 0.20312650501728058 0.7904085516929626 107 107 107
0.07281382381916046 -0.2619773745536804 0.6684973835945129 46 46 46
0.07297097891569138 -0.26071029901504517 0.6654292941093445 46 46 46
0.07324399054050446 -0.2583283483982086 0.6597732305526733 44 44 44
0.0750761404633522 -0.23846663534641266 0.6148419380187988 36 36 36
0.005286027677357197 -0.011198034510016441 0.020386800169944763 130 130 130
0.005234910640865564 -0.011021040380001068 0.019922301173210144 129 129 129
0.005502844695001841 -0.009587743319571018 0.017249472439289093 116 116 116
0.0054567307233810425 -0.0094454912468791 0.016817593947052956 79 79 79
