ply
format ascii 1.0
element vertex 23
property float x
property float y
property float z
property uchar red
property uchar green
property uchar blue
end_header
-6.12616491317749 -2.4288511276245117 12.740431785583496 96 96 96
-6.422603130340576 0.5527951121330261 13.679132461547852 29 29 29
-5.006796360015869 -2.251399040222168 10.830039024353027 42 42 42
-3.7057440280914307 -1.5725620985031128 8.707496643066406 36 36 36
-3.026933431625366 -0.5811547040939331 7.713152885437012 129 129 129
-3.0314340591430664 -0.6570701599121094 7.760425567626953 39 39 39
-2.976222038269043 -0.7427148222923279 7.74664831161499 144 144 144
-2.976222038269043 -0.7427148222923279 7.74664831161499 144 144 144
-3.1650853157043457 -1.6071724891662598 8.374523162841797 88 88 88
-4.543277740478516 -3.089048385620117 12.121783256530762 251 251 251
-2.8958003520965576 -0.753253698348999 7.798231601715088 26 26 26
-2.9086015224456787 -0.5384522080421448 7.918128967285156 52 52 52
-2.9253592491149902 -0.3029228746891022 7.99943208694458 90 90 90
-2.8585221767425537 -0.7269806861877441 7.8177618980407715 30 30 30
-2.8839058876037598 -0.6548757553100586 7.936832427978516 154 154 154
-2.6892781257629395 -1.0351346731185913 7.43111515045166 22 22 22
-2.817763566970825 -0.7533407211303711 7.852466106414795 157 157 157
-2.867060899734497 -0.5466324090957642 7.9931321144104 51 51 51
-2.913238286972046 -0.40175577998161316 8.15697956085205 212 212 212
-2.639171838760376 -0.9481601119041443 7.410995960235596 76 76 76
-2.848385810852051 -0.4837781488895416 8.047526359558105 107 107 107
-2.8068289756774902 -0.6985385417938232 8.077280044555664 20 20 20
-2.710252285003662 -0.6083533763885498 8.079099655151367 31 31 31
