ply
format ascii 1.0
element vertex 20
property float x
property float y
property float z
property uchar red
property uchar green
property uchar blue
end_header
-0.8661434650421143 0.12589514255523682 1.7691400051116943 94 94 94
-0.7757654786109924 0.35764655470848083 1.7022796869277954 99 99 99
-0.7241443395614624 0.37157222628593445 1.7211737632751465 92 92 92
-0.7305867671966553 0.16804218292236328 1.754564642906189 54 54 54
-0.7037679553031921 0.1831381767988205 1.746697187423706 80 80 80
-0.6239144802093506 -0.3712258040904999 1.7272425889968872 85 85 85
-0.6312217712402344 0.39232444763183594 1.7599287033081055 118 118 118
-0.609256386756897 0.39728647470474243 1.768516182899475 51 51 51
-0.6551917791366577 -0.21044300496578217 2.028315782546997 47 47 47
-0.5550368428230286 0.3163835406303406 1.7816696166992188 76 76 76
-0.5139739513397217 -0.07970652729272842 1.8765811920166016 212 212 212
-0.5139739513397217 -0.07970652729272842 1.8765811920166016 212 212 212
-0.4819169342517853 0.3680364489555359 1.820431113243103 35 35 35
-0.46138617396354675 0.37014323472976685 1.830606460571289 94 94 94
-0.25138530135154724 -0.13570137321949005 1.011782169342041 26 26 26
-0.4532453715801239 0.36306679248809814 1.8282228708267212 97 97 97
-0.43709874153137207 0.20488116145133972 1.8132643699645996 57 57 57
-0.24125519394874573 -0.13522399961948395 1.0108954906463623 36 36 36
-0.4007708430290222 0.34833210706710815 1.8541080951690674 101 101 101
-0.4007708430290222 0.34833210706710815 1.8541080951690674 101 101 101
