ply
format ascii 1.0
element vertex 16
property float x
property float y
property float z
property uchar red
property uchar green
property uchar blue
end_header
-10.427608489990234 18.556169509887695 48.659324645996094 104 104 104
-10.427608489990234 18.556169509887695 48.659324645996094 104 104 104
18.940685272216797 -21.86649513244629 44.138668060302734 125 125 125
19.174518585205078 8.680458068847656 43.65567398071289 112 112 112
19.828350067138672 -27.638505935668945 44.179996490478516 80 80 80
19.518781661987305 16.64082908630371 42.90323257446289 40 40 40
19.126131057739258 -16.3341121673584 41.58681106567383 37 37 37
18.47737693786621 -19.40642547607422 40.12852096557617 33 33 33
18.47737693786621 -19.40642547607422 40.12852096557617 33 33 33
19.541885375976562 -1.5061848163604736 41.658042907714844 18 18 18
20.181476593017578 -14.214492797851562 42.621700286865234 114 114 114
20.349214553833008 -7.964907646179199 42.85586929321289 26 26 26
19.05167579650879 -14.020231246948242 40.124271392822266 122 122 122
21.081092834472656 -10.482988357543945 44.157737731933594 29 29 29
21.081092834472656 -10.482988357543945 44.157737731933594 29 29 29
20.730449676513672 -19.883487701416016 42.72545623779297 126 126 126
