ply
format ascii 1.0
element vertex 18
property float x
property float y
property float z
property uchar red
property uchar green
property uchar blue
end_header
-1.0542550579375326e-16 -8.451443178918074e-15 3.450997092054758e-15 47 47 47
0.0054555474780499935 -0.00822746567428112 0.0473899245262146 129 129 129
0.00422694580629468 -0.0016217388911172748 0.03822891786694527 136 136 136
0.030806440860033035 -0.08947277814149857 0.17170381546020508 182 182 182
0.004853715654462576 0.003659648820757866 0.030928710475564003 183 183 183
0.010651953518390656 -0.01250910572707653 0.05721415579319 220 220 220
0.006845600437372923 -0.0007803361513651907 0.03802092745900154 191 191 191
0.007454500999301672 -0.002517241518944502 0.0408434197306633 210 210 210
0.008678565733134747 -0.006194655317813158 0.04684995859861374 201 201 201
0.015183507464826107 -0.02592487633228302 0.07909486442804337 195 195 195
0.013564092107117176 -0.02084335871040821 0.07076983153820038 253 253 253
0.012783762067556381 -0.01846674084663391 0.06688402593135834 191 191 191
0.01218482106924057 -0.016538294032216072 0.06371504813432693 241 241 241
0.016477834433317184 -0.029243996366858482 0.08443795144557953 225 225 225
0.013042141683399677 -0.014197847805917263 0.057926129549741745 235 235 235
0.005995357874780893 0.006447453051805496 0.024384746327996254 254 254 254
0.00611225375905633 0.006226557772606611 0.02465447224676609 255 255 255
0.006219130475074053 0.00711142597720027 0.02214021049439907 252 252 252
