ply
format ascii 1.0
element vertex 26
property float x
property float y
property float z
property uchar red
property uchar green
property uchar blue
end_header
-0.008780867792665958 -0.004573784302920103 0.01875711977481842 175 175 175
-0.00784279778599739 -0.003207538742572069 0.02192717418074608 102 102 102
-0.007426087278872728 -0.0033336826600134373 0.02277594432234764 69 69 69
-0.007032780908048153 -0.0033604418858885765 0.02362026832997799 60 60 60
-0.006849786266684532 -0.0033640877809375525 0.024017492309212685 56 56 56
2.14501690864563 -0.8963818550109863 5.99136209487915 31 31 31
2.14501690864563 -0.8963818550109863 5.99136209487915 31 31 31
2.320143222808838 -1.1000266075134277 6.414322853088379 41 41 41
2.2351956367492676 -0.9461805820465088 6.052697658538818 151 151 151
1.9758381843566895 -0.6999630928039551 5.299344539642334 165 165 165
2.132720947265625 -0.855535626411438 5.669651508331299 28 28 28
2.132720947265625 -0.855535626411438 5.669651508331299 28 28 28
2.3627219200134277 -1.0688310861587524 6.267169952392578 30 30 30
2.2525932788848877 -0.9494135975837708 5.822518348693848 30 30 30
2.2525932788848877 -0.9494135975837708 5.822518348693848 30 30 30
2.3395743370056152 -1.0291647911071777 6.00673246383667 32 32 32
2.4132070541381836 -1.078043818473816 6.15466833114624 31 31 31
2.2617716789245605 -0.9223183989524841 5.760389804840088 153 153 153
2.418487787246704 -1.0473546981811523 6.139786720275879 132 132 132
2.39141845703125 -0.9943341612815857 6.01143217086792 28 28 28
2.4319143295288086 -1.0721458196640015 6.092860221862793 32 32 32
2.4319143295288086 -1.0721458196640015 6.092860221862793 32 32 32
0.9921183586120605 0.65648353099823 2.232309341430664 112 112 112
3.5013036727905273 1.9475306272506714 7.8467183113098145 129 129 129
1.3827300071716309 -0.25878143310546875 2.947319269180298 31 31 31
2.348726749420166 -0.9324935078620911 4.978653907775879 26 26 26
