ply
format ascii 1.0
element vertex 25
property float x
property float y
property float z
property uchar red
property uchar green
property uchar blue
end_header
6.979554132353395e-17 -1.7722193746204888e-16 7.103337303803652e-15 108 108 108
0.0006932257674634457 -0.01129707507789135 0.05462293326854706 151 151 151
0.0007070042192935944 -0.008710908703505993 0.050590984523296356 154 154 154
1.8091723780845398e-16 -5.097573449100836e-16 7.518394882903047e-15 255 255 255
0.001235579838976264 0.003565642749890685 0.030617978423833847 143 143 143
0.002448511775583029 -0.020251119509339333 0.05789117142558098 101 101 101
0.0030838893726468086 -0.003625560784712434 0.03720219433307648 91 91 91
6.384114852026447e-16 -1.066439150427753e-15 7.284693410557902e-15 254 254 254
6.626224396922512e-16 -1.3620907067109461e-15 7.517213271941627e-15 253 253 253
6.660475762331516e-16 -1.412235163067519e-15 7.552928416162605e-15 231 231 231
6.692359670652944e-16 -1.847809574215308e-15 6.9759168669987666e-15 188 188 188
0.003606246318668127 -0.0008603369351476431 0.03116683103144169 74 74 74
7.538414294853166e-16 -3.7430931216627327e-16 5.866641248725114e-15 254 254 254
0.0032360698096454144 0.0061229318380355835 0.023026619106531143 53 53 53
0.00326718227006495 0.006164804100990295 0.02287954092025757 82 82 82
0.0033031837083399296 0.006206249352544546 0.022718047723174095 91 91 91
6.842556611651261e-16 1.161464706285779e-15 4.173078915303656e-15 253 253 253
0.0034727801103144884 0.006436869967728853 0.02188435196876526 110 110 110
6.944616670257115e-16 1.1755655813960766e-15 4.125167767191637e-15 254 254 254
7.218868997919113e-16 1.2129037466231118e-15 3.993868343004801e-15 253 253 253
0.003704774659126997 0.006770165171474218 0.02065259777009487 77 77 77
0.0037911280523985624 0.006895179394632578 0.02016991563141346 36 36 36
0.0038319521117955446 0.006953597534447908 0.019937703385949135 60 60 60
0.004280298016965389 0.004098417703062296 0.021048452705144882 48 48 48
8.827845138920098e-16 6.206659331994303e-16 3.863737400768702e-15 247 247 247
