ply
format ascii 1.0
element vertex 38
property float x
property float y
property float z
property uchar red
property uchar green
property uchar blue
end_header
-0.43826109170913696 0.26938343048095703 1.5688854455947876 98 98 98
-0.4211418926715851 0.3440796732902527 1.5705018043518066 118 118 118
-0.4196709096431732 0.31065186858177185 1.5668872594833374 122 122 122
-0.4133850634098053 0.2701851725578308 1.566670536994934 126 126 126
-0.4128856658935547 0.3529924154281616 1.5699498653411865 126 126 126
-0.3952380418777466 0.30651432275772095 1.5658384561538696 141 141 141
-0.37187185883522034 -0.5572303533554077 1.5013840198516846 116 116 116
-0.3810679018497467 0.34227314591407776 1.5670955181121826 127 127 127
-0.368740975856781 0.524395763874054 1.5800023078918457 56 56 56
-0.35315027832984924 0.2954132854938507 1.5613937377929688 124 124 124
-0.34874406456947327 0.3087753355503082 1.5612740516662598 138 138 138
-0.34167489409446716 0.2855381965637207 1.558878779411316 117 117 117
-0.3355160057544708 0.2597510516643524 1.559213399887085 54 54 54
-0.3312385380268097 0.08838045597076416 1.5848385095596313 57 57 57
-0.3164721727371216 0.28815340995788574 1.559278130531311 125 125 125
-0.27445483207702637 0.29392045736312866 1.5493552684783936 141 141 141
-0.2645595073699951 0.2997209131717682 1.5558255910873413 138 138 138
-0.2637019455432892 0.43134447932243347 1.5601723194122314 59 59 59
-0.25865301489830017 0.33413219451904297 1.554064154624939 106 106 106
-0.2579368054866791 0.2754555940628052 1.5567562580108643 39 39 39
-0.2497449666261673 0.3715001940727234 1.5571852922439575 79 79 79
-0.2450772225856781 0.3357927203178406 1.5558606386184692 48 48 48
-0.2450772225856781 0.3357927203178406 1.5558606386184692 48 48 48
-0.243707537651062 0.286528617143631 1.5483274459838867 162 162 162
-0.235219344496727 0.08874484151601791 1.5773035287857056 67 67 67
-0.23565107583999634 0.039841633290052414 1.6129562854766846 255 255 255
-0.19857320189476013 0.3005162179470062 1.5453464984893799 57 57 57
-0.19234204292297363 0.288526713848114 1.5450373888015747 99 99 99
-0.17997774481773376 0.29054316878318787 1.5465081930160522 97 97 97
-0.17457915842533112 0.15752658247947693 1.5385963916778564 54 54 54
-0.14912228286266327 0.2645752429962158 1.539581537246704 21 21 21
-0.14743290841579437 0.10578072816133499 1.527268648147583 143 143 143
-0.14102742075920105 0.193819060921669 1.5349715948104858 71 71 71
-0.12139451503753662 0.17946743965148926 1.5341404676437378 116 116 116
-0.12139451503753662 0.17946743965148926 1.5341404676437378 116 116 116
-0.11760726571083069 0.12849706411361694 1.518320918083191 93 93 93
-0.09214609861373901 0.16276732087135315 1.5278229713439941 93 93 93
-0.02648196555674076 0.22067415714263916 1.5206700563430786 18 18 18
