ply
format ascii 1.0
element vertex 9
property float x
property float y
property float z
property uchar red
property uchar green
property uchar blue
end_header
-1.4632455782637616e-16 3.8785829237187545e-16 1.4913373465501117e-15 45 45 45
1.626360995935013e-17 2.2511949334224203e-16 2.7086798634541913e-15 36 36 36
1.534007637119672e-16 2.282218044511201e-16 3.1249853338431288e-15 9 9 9
0.10884201526641846 -0.051554176956415176 0.5762698650360107 110 110 110
0.009711976163089275 0.015181288123130798 0.028169820085167885 213 213 213
0.009638968855142593 0.015310000628232956 0.0269211046397686 211 211 211
-1.0727874770789667e-16 4.0873294290092485e-16 5.116265878059962e-16 68 68 68
-1.0886846973121538e-16 4.0662070742826864e-16 4.983362702866618e-16 69 69 69
0.009419799782335758 0.015626855194568634 0.023686906322836876 213 213 213
