ply
format ascii 1.0
element vertex 29
property float x
property float y
property float z
property uchar red
property uchar green
property uchar blue
end_header
-0.28449153900146484 -0.1116810142993927 0.7885534167289734 68 68 68
-0.2788315415382385 -0.11176702380180359 0.7975091934204102 74 74 74
0.7620020508766174 3.5199196338653564 5.447132587432861 60 60 60
0.7973801493644714 3.546539545059204 5.4225664138793945 47 47 47
1.5777080059051514 -0.6718474626541138 4.421864986419678 26 26 26
1.585123062133789 -0.6574319005012512 4.433376312255859 50 50 50
1.5907622575759888 -0.6992030739784241 4.392765998840332 34 34 34
1.5907622575759888 -0.6992030739784241 4.392765998840332 34 34 34
1.612404704093933 -0.6800252795219421 4.384454727172852 155 155 155
1.6172999143600464 -0.7175697088241577 4.360874176025391 149 149 149
1.6277755498886108 -0.7550190091133118 4.32499885559082 39 39 39
1.642778992652893 -0.6547800898551941 4.332625389099121 148 148 148
1.658808708190918 -0.6971424221992493 4.311025142669678 31 31 31
1.658808708190918 -0.6971424221992493 4.311025142669678 31 31 31
1.6621562242507935 -0.7343748807907104 4.291029930114746 30 30 30
1.6783784627914429 -0.6817930936813354 4.29817008972168 151 151 151
1.6883528232574463 -0.7050064206123352 4.273596286773682 26 26 26
1.6852062940597534 -0.7486280798912048 4.251930236816406 27 27 27
1.4292323589324951 -1.9091541767120361 3.5768935680389404 121 121 121
1.7297407388687134 1.6421738862991333 4.241725444793701 29 29 29
1.741539716720581 1.780487060546875 4.2669453620910645 45 45 45
1.6939830780029297 1.0298839807510376 4.093052864074707 108 108 108
1.624491572380066 -0.03522491455078125 3.838702917098999 85 85 85
1.673673152923584 0.3604382574558258 3.9137935638427734 29 29 29
1.6412354707717896 -0.3909566402435303 3.760181427001953 76 76 76
1.673464059829712 -0.06411900371313095 3.8336801528930664 19 19 19
1.6278419494628906 -0.6855936646461487 3.6772286891937256 27 27 27
1.6278419494628906 -0.6855936646461487 3.6772286891937256 27 27 27
1.7964884042739868 0.17551136016845703 3.7180333137512207 18 18 18
