ply
format ascii 1.0
element vertex 22
property float x
property float y
property float z
property uchar red
property uchar green
property uchar blue
end_header
-0.26661401987075806 -0.23174001276493073 1.7614127397537231 122 122 122
-0.15165457129478455 -0.7367595434188843 1.889530062675476 107 107 107
-0.10292395949363708 -0.7093634009361267 1.9080015420913696 99 99 99
-0.09213162958621979 -0.6784442663192749 2.0079963207244873 45 45 45
-0.05687232315540314 -0.6866465210914612 2.042577028274536 41 41 41
-0.04526769742369652 -0.5144683718681335 2.1002469062805176 105 105 105
-0.03390942141413689 0.13891679048538208 2.1660854816436768 121 121 121
-0.03390942141413689 0.13891679048538208 2.1660854816436768 121 121 121
-0.02234955132007599 -0.7027125358581543 2.0433096885681152 3 3 3
-0.006236855871975422 -0.49641457200050354 2.166231632232666 99 99 99
0.14707760512828827 0.33490949869155884 2.068539619445801 98 98 98
0.3929825723171234 0.4419476091861725 1.9054073095321655 114 114 114
0.4013041853904724 0.32307955622673035 1.8944625854492188 22 22 22
0.45563867688179016 0.19427838921546936 1.9210655689239502 24 24 24
0.45049887895584106 -0.6286908388137817 1.874940037727356 141 141 141
0.5115798711776733 0.45878055691719055 1.825122594833374 122 122 122
0.5406028628349304 0.44619014859199524 1.8025554418563843 104 104 104
0.5623126029968262 0.20191740989685059 1.8544455766677856 33 33 33
0.5506722927093506 0.4305743873119354 1.7986012697219849 39 39 39
0.6026317477226257 0.33156195282936096 1.7405914068222046 89 89 89
0.6026317477226257 0.33156195282936096 1.7405914068222046 89 89 89
0.610532283782959 0.3338298201560974 1.7386562824249268 78 78 78
