ply
format ascii 1.0
element vertex 711
property float x
property float y
property float z
property uchar red
property uchar green
property uchar blue
end_header
-1.696189045906067 -0.7434554696083069 4.000117778778076 32 32 32
-1.6216371059417725 0.13703900575637817 4.059722423553467 23 23 23
-1.240140676498413 0.8295910358428955 3.388367176055908 22 22 22
-0.9753863215446472 0.5420961976051331 2.9269747734069824 55 55 55
-1.361283302307129 -1.0494328737258911 4.114495754241943 158 158 158
-1.361283302307129 -1.0494328737258911 4.114495754241943 158 158 158
-1.3622422218322754 -0.77399742603302 4.160618782043457 131 131 131
-0.95944744348526 0.547784686088562 2.9539995193481445 50 50 50
-1.3189023733139038 -1.054903507232666 4.112401008605957 1 1 1
-0.9691542983055115 0.5759828686714172 3.0986602306365967 58 58 58
-1.1999982595443726 -1.0919898748397827 4.1431498527526855 175 175 175
-1.1969953775405884 -1.0929920673370361 4.137651443481445 176 176 176
-1.2243452072143555 -0.5244539976119995 4.17844820022583 39 39 39
-1.1947462558746338 -0.6245235800743103 4.135351657867432 46 46 46
-1.141615390777588 -1.0588536262512207 4.168108940124512 55 55 55
-1.1200194358825684 -0.7777712345123291 4.151206016540527 56 56 56
-0.9245440363883972 0.3409583568572998 3.6044418811798096 30 30 30
-0.7713609337806702 0.5508421659469604 3.0808558464050293 45 45 45
-1.073273777961731 0.06157601252198219 4.283316135406494 27 27 27
-0.7609398365020752 0.536770224571228 3.072774887084961 73 73 73
-1.0197876691818237 -1.0345929861068726 4.246646404266357 41 41 41
-0.5374826788902283 0.34303462505340576 2.2559914588928223 212 212 212
-0.8397631645202637 0.30927935242652893 3.8317394256591797 166 166 166
-0.7160130739212036 0.19118301570415497 4.1564531326293945 33 33 33
-0.7356862425804138 -0.6351864337921143 4.328664779663086 62 62 62
-0.7216264009475708 -0.511821448802948 4.2600555419921875 66 66 66
-0.7894706130027771 0.06328167766332626 4.718875885009766 29 29 29
-0.714963972568512 0.09403249621391296 4.449438571929932 34 34 34
-0.6914384961128235 0.013418040238320827 4.485198020935059 46 46 46
-0.6618152260780334 0.05723637714982033 4.396119117736816 29 29 29
-0.6482865810394287 -1.0497477054595947 4.378074645996094 65 65 65
-0.5962393283843994 0.2449919581413269 4.1059370040893555 80 80 80
-0.5722061991691589 0.32381343841552734 3.8756840229034424 21 21 21
-0.6571013927459717 -0.3672274649143219 4.6503472328186035 57 57 57
-0.5810418128967285 -0.17211200296878815 4.4695048332214355 57 57 57
-0.4979444742202759 0.2780844271183014 3.8184354305267334 27 27 27
-0.4332851767539978 -1.3468788862228394 3.767636299133301 111 111 111
-0.4689534306526184 0.02722461149096489 4.459224224090576 50 50 50
-0.4510992467403412 -1.0267510414123535 4.442667007446289 63 63 63
-0.21345257759094238 0.4477415680885315 2.432671070098877 57 57 57
-0.38049572706222534 -1.07021164894104 4.464001178741455 176 176 176
-0.3500083386898041 0.03871748223900795 4.505342960357666 42 42 42
-0.3684789836406708 0.0034574358724057674 4.5190229415893555 40 40 40
-0.2852728068828583 -1.3498696088790894 3.8298497200012207 94 94 94
-0.3324245512485504 -0.6583168506622314 4.491941928863525 40 40 40
-0.3136807382106781 -1.0394959449768066 4.410279750823975 108 108 108
-0.23728901147842407 -0.5698286294937134 4.462108135223389 54 54 54
-0.11026636511087418 -1.0615932941436768 4.564926624298096 161 161 161
-0.06715889275074005 -1.4754638671875 4.579395294189453 123 123 123
-0.012034181505441666 0.4612879157066345 2.324153423309326 40 40 40
-0.015942707657814026 0.14910200238227844 4.6952643394470215 33 33 33
0.0032982067205011845 0.37794721126556396 2.3882086277008057 88 88 88
0.020139357075095177 -0.9194629788398743 4.523629188537598 29 29 29
0.03595266863703728 0.23706690967082977 4.669469833374023 138 138 138
0.039094436913728714 -0.9081835150718689 4.43548583984375 29 29 29
0.0890771746635437 0.23810578882694244 4.725030422210693 123 123 123
0.08907723426818848 0.23810532689094543 4.725037574768066 123 123 123
0.08886339515447617 0.2914990186691284 2.5011749267578125 8 8 8
0.09172187000513077 0.30889463424682617 2.506593704223633 120 120 120
0.11447961628437042 0.3385956585407257 2.4879672527313232 54 54 54
0.22746609151363373 0.2864879369735718 4.532412528991699 96 96 96
0.12958574295043945 0.36619654297828674 2.5312161445617676 31 31 31
0.28582942485809326 -0.3423396348953247 4.60080623626709 110 110 110
0.2969057857990265 0.0905294194817543 4.515267848968506 63 63 63
0.18970590829849243 0.29124805331230164 2.6957929134368896 34 34 34
0.3247530460357666 -0.5701831579208374 4.4368743896484375 72 72 72
0.329640656709671 -0.7893148064613342 4.429965496063232 65 65 65
0.35578426718711853 -0.7951747179031372 4.366360187530518 39 39 39
0.3978407084941864 -0.6115936040878296 4.346617221832275 120 120 120
0.6037700176239014 0.7811997532844543 3.979886054992676 31 31 31
0.6990590691566467 -0.9423480033874512 3.8529746532440186 172 172 172
0.7115592956542969 -0.9163475632667542 3.9223456382751465 159 159 159
0.7158903479576111 -0.9734004139900208 3.903939962387085 158 158 158
0.7349415421485901 -0.8721206188201904 3.9027984142303467 170 170 170
0.7821841835975647 0.14878414571285248 3.8780813217163086 141 141 141
0.7414361834526062 0.9276132583618164 3.627936840057373 28 28 28
0.7925490140914917 -0.9904891848564148 3.8522450923919678 217 217 217
0.8054987192153931 0.13560611009597778 3.870347261428833 224 224 224
0.7599152326583862 0.22032530605793 3.5652387142181396 244 244 244
0.8302976489067078 0.1195385754108429 3.8928139209747314 221 221 221
0.7701753377914429 0.22614111006259918 3.557490825653076 221 221 221
0.8758002519607544 0.16290642321109772 3.8695566654205322 194 194 194
0.9191383123397827 0.1430148035287857 3.9161741733551025 144 144 144
0.8158581852912903 0.2842279076576233 3.456453800201416 130 130 130
0.8664938807487488 0.2595144212245941 3.4209117889404297 130 130 130
0.8909667134284973 0.5359487533569336 3.3555495738983154 144 144 144
0.9782853722572327 0.2116544544696808 3.7100727558135986 102 102 102
0.9993629455566406 0.17278751730918884 3.658330202102661 80 80 80
0.9445328712463379 0.6850168108940125 3.334677219390869 163 163 163
0.9445328712463379 0.6850168108940125 3.334677219390869 163 163 163
0.9607769250869751 0.2523621618747711 3.324920177459717 84 84 84
0.9554827809333801 0.33361488580703735 3.3234915733337402 174 174 174
0.9697163701057434 0.6109290719032288 3.336841344833374 177 177 177
1.0741947889328003 0.08902903646230698 3.6915974617004395 184 184 184
1.0047839879989624 0.571265459060669 3.338024139404297 30 30 30
1.0047820806503296 0.5712602138519287 3.336639165878296 30 30 30
0.9953993558883667 0.4757726788520813 3.3252649307250977 113 113 113
1.0120404958724976 0.32845765352249146 3.322925567626953 234 234 234
1.002699851989746 0.362759530544281 3.2868754863739014 183 183 183
1.0907429456710815 1.009024739265442 3.5259788036346436 30 30 30
1.0214266777038574 0.35664841532707214 3.303445816040039 106 106 106
1.1203006505966187 0.1670934557914734 3.609565258026123 187 187 187
1.0376094579696655 0.3410895764827728 3.2606916427612305 102 102 102
1.1708422899246216 0.08737637102603912 3.668238401412964 255 255 255
1.0733819007873535 0.5336056351661682 3.3252742290496826 31 31 31
1.267129898071289 -0.18212972581386566 3.817344903945923 245 245 245
1.1628254652023315 0.554591953754425 3.4762215614318848 29 29 29
1.1460132598876953 0.2156410962343216 3.3885369300842285 235 235 235
1.232864499092102 0.7065818905830383 3.3289620876312256 149 149 149
1.2497864961624146 0.26414141058921814 3.346774101257324 101 101 101
1.2722135782241821 0.9276342391967773 3.288705587387085 95 95 95
1.299081802368164 0.3085757791996002 3.3337981700897217 150 150 150
1.288464903831482 0.6919505596160889 3.2956745624542236 37 37 37
1.301299810409546 0.6454452276229858 3.3229613304138184 71 71 71
1.2852236032485962 0.8020769357681274 3.2696518898010254 124 124 124
1.2852236032485962 0.8020769357681274 3.2696518898010254 124 124 124
1.2938902378082275 0.2787376940250397 3.292701005935669 107 107 107
1.3913415670394897 0.5751104950904846 3.333502769470215 174 174 174
1.3575705289840698 0.29339271783828735 3.2294325828552246 121 121 121
1.3916077613830566 0.8272089958190918 3.265138864517212 69 69 69
1.49586021900177 0.0028006555512547493 3.496807098388672 158 158 158
1.443235158920288 0.15757648646831512 3.309119462966919 175 175 175
1.5058420896530151 0.05171394720673561 3.4357428550720215 58 58 58
1.4636479616165161 0.565639853477478 3.3186113834381104 152 152 152
1.4684170484542847 0.1843406707048416 3.3187384605407715 180 180 180
1.4684170484542847 0.1843406707048416 3.3187384605407715 180 180 180
1.5066200494766235 0.09766124933958054 3.3761696815490723 244 244 244
1.4667829275131226 0.26492878794670105 3.2445647716522217 197 197 197
1.4657471179962158 0.7017097473144531 3.295022487640381 85 85 85
1.4529988765716553 0.7181232571601868 3.211716890335083 130 130 130
1.5114556550979614 0.20765045285224915 3.329186201095581 179 179 179
1.5038474798202515 0.20940768718719482 3.2768101692199707 180 180 180
1.5211995840072632 0.6304566264152527 3.3040478229522705 28 28 28
1.4775198698043823 0.27196380496025085 3.191298246383667 130 130 130
1.5201057195663452 0.26858577132225037 3.2637152671813965 151 151 151
1.5153210163116455 0.27817070484161377 3.2656612396240234 128 128 128
1.5733668804168701 0.1464124172925949 3.335538864135742 236 236 236
1.5728341341018677 0.1712663620710373 3.3014206886291504 207 207 207
1.6036159992218018 0.1252947896718979 3.3061840534210205 106 106 106
1.6852394342422485 0.03522293642163277 3.484564781188965 179 179 179
1.616674780845642 0.13430318236351013 3.302659511566162 60 60 60
-0.7661567330360413 0.5197070240974426 3.0780704021453857 21 21 21
0.01872236467897892 -1.01889967918396 4.583724498748779 82 82 82
1.2685143947601318 0.7470716238021851 3.3502421379089355 68 68 68
-0.7548305988311768 0.5095507502555847 3.101254463195801 0 0 0
-1.2748491764068604 -1.0668487548828125 4.135931968688965 161 161 161
-1.3188652992248535 -1.054888129234314 4.112326622009277 1 1 1
1.6067124605178833 0.011531177908182144 3.5401487350463867 234 234 234
-0.7528477311134338 0.5081282258033752 3.097808837890625 0 0 0
-0.7154444456100464 -1.0729520320892334 4.345388889312744 103 103 103
1.28563392162323 -0.1542952060699463 3.7819042205810547 120 120 120
1.159619688987732 0.04466976970434189 3.7203545570373535 153 153 153
-0.41811200976371765 -1.0539658069610596 4.425956726074219 98 98 98
1.405713438987732 0.1930818110704422 3.351922035217285 105 105 105
0.11697225272655487 -1.0043563842773438 4.582451820373535 59 59 59
1.5257558822631836 0.08169975876808167 3.347661256790161 121 121 121
0.9800172448158264 0.3718148469924927 3.3296260833740234 38 38 38
1.4664130210876465 0.09220724552869797 3.467329740524292 197 197 197
1.0044881105422974 0.3630608022212982 3.306750774383545 200 200 200
1.082521677017212 0.10581617057323456 3.7006945610046387 99 99 99
1.4878497123718262 0.10101373493671417 3.3411693572998047 106 106 106
1.1468037366867065 0.11561286449432373 3.6572532653808594 110 110 110
1.1804956197738647 0.11051665991544724 3.673187494277954 109 109 109
0.9980783462524414 0.35188671946525574 3.296427011489868 96 96 96
0.944492757320404 0.2623911201953888 3.334203004837036 75 75 75
0.8646656274795532 0.13313093781471252 3.906925916671753 109 109 109
1.5481232404708862 0.11540918052196503 3.3370981216430664 240 240 240
-0.916201114654541 0.4446884095668793 3.1089162826538086 85 85 85
-0.8521701693534851 0.3902055323123932 3.748056650161743 100 100 100
0.27166688442230225 -0.6340996623039246 4.523928165435791 169 169 169
0.941613495349884 0.2686198055744171 3.335712432861328 49 49 49
0.2716697156429291 -0.6340996026992798 4.523852825164795 169 169 169
0.2716686725616455 -0.634099543094635 4.523902893066406 169 169 169
1.0091403722763062 0.26629918813705444 3.3823812007904053 220 220 220
-0.9484407901763916 0.4684634208679199 3.1751298904418945 102 102 102
0.6038084030151367 0.7812432646751404 3.9801316261291504 31 31 31
1.3300572633743286 0.6560028195381165 3.398256540298462 71 71 71
1.3300495147705078 0.6558582782745361 3.3980391025543213 71 71 71
-0.9803287386894226 0.4767897129058838 3.1424717903137207 132 132 132
-1.0203102827072144 0.48378318548202515 3.1197140216827393 34 34 34
-0.9453261494636536 0.4795847535133362 2.9338161945343018 190 190 190
0.7756932973861694 0.6398511528968811 3.522024393081665 181 181 181
1.3950600624084473 0.5850191116333008 3.313390016555786 9 9 9
1.3490605354309082 -0.15976782143115997 3.8056066036224365 147 147 147
1.3224023580551147 -0.15774357318878174 3.889866828918457 120 120 120
1.3241583108901978 -0.16431884467601776 3.874638319015503 85 85 85
1.1618587970733643 0.04719093441963196 3.7513763904571533 205 205 205
1.5214110612869263 0.10840592533349991 3.3171145915985107 202 202 202
1.4034934043884277 0.727188766002655 3.221100330352783 72 72 72
0.9369571805000305 0.347289115190506 3.3388595581054688 42 42 42
0.7257981896400452 -0.9906195998191833 3.8340084552764893 106 106 106
-1.0745735168457031 -1.0864660739898682 4.291759014129639 122 122 122
-1.006962537765503 0.46908557415008545 3.243873357772827 185 185 185
-0.6629044413566589 -1.0323272943496704 4.25570011138916 156 156 156
-0.31369322538375854 -1.0395060777664185 4.410336494445801 108 108 108
1.3894473314285278 0.555462121963501 3.331909656524658 10 10 10
-0.2174449861049652 -1.0029398202896118 4.488971710205078 226 226 226
0.1475922018289566 -0.9833108186721802 4.59247350692749 91 91 91
1.3894373178482056 0.5554547905921936 3.3318746089935303 10 10 10
0.376923143863678 -0.8221606612205505 4.26751184463501 118 118 118
1.2906854152679443 0.785598874092102 3.272768974304199 74 74 74
-1.0924094915390015 0.19841526448726654 3.7839386463165283 71 71 71
1.2117317914962769 0.7849676012992859 3.327305793762207 108 108 108
-0.7872757911682129 0.31868258118629456 4.048245429992676 165 165 165
1.451399803161621 0.6923111081123352 3.2225639820098877 15 15 15
1.5122967958450317 0.14300064742565155 3.3241240978240967 156 156 156
1.4581743478775024 0.12169524282217026 3.2608213424682617 165 165 165
1.4745292663574219 0.1258103996515274 3.3515243530273438 162 162 162
0.9309521317481995 0.3930998742580414 3.34216046333313 38 38 38
-1.0745468139648438 -1.0864523649215698 4.291706562042236 122 122 122
-1.3189038038253784 -1.0548975467681885 4.1124138832092285 1 1 1
0.060095757246017456 0.2125403881072998 4.627258777618408 73 73 73
-1.0432732105255127 0.49336516857147217 3.3824985027313232 197 197 197
0.8820759057998657 0.1394636183977127 3.9839224815368652 109 109 109
-1.1487046480178833 -1.1086775064468384 4.309105396270752 99 99 99
1.130710482597351 0.09814053773880005 3.6668035984039307 135 135 135
-0.9244245290756226 0.3700832724571228 3.7780518531799316 137 137 137
1.0369114875793457 0.08805063366889954 3.6887900829315186 171 171 171
0.763198971748352 -1.018376350402832 3.895430326461792 119 119 119
1.055249810218811 0.5129925012588501 3.3453986644744873 160 160 160
1.1536458730697632 0.06952349841594696 3.6924729347229004 127 127 127
1.0957316160202026 0.06858978420495987 3.6665797233581543 246 246 246
1.3677191734313965 0.2009848654270172 3.3420190811157227 114 114 114
1.405707836151123 0.1930893361568451 3.3518803119659424 105 105 105
1.0391353368759155 0.513835072517395 3.313570499420166 137 137 137
1.3627650737762451 0.19992433488368988 3.3068923950195312 193 193 193
-0.9569304585456848 0.4824922978878021 2.979360580444336 36 36 36
-0.9441311359405518 0.5030873417854309 3.1095049381256104 222 222 222
-0.6482129096984863 0.24564982950687408 4.1560516357421875 103 103 103
0.1425413340330124 -0.9464384913444519 4.435412406921387 91 91 91
0.9898808002471924 0.5570528507232666 3.3140833377838135 28 28 28
1.5835257768630981 0.01200101524591446 3.4345319271087646 128 128 128
1.4367034435272217 0.7936710119247437 3.2541487216949463 117 117 117
1.43527352809906 0.8022843599319458 3.2651078701019287 21 21 21
1.4358108043670654 0.8064398765563965 3.2677037715911865 49 49 49
0.2765912115573883 -0.6160944700241089 4.497974872589111 124 124 124
1.0484085083007812 0.49092286825180054 3.319117307662964 122 122 122
0.6038059592247009 0.7812406420707703 3.980126142501831 31 31 31
0.9419265985488892 0.272124707698822 3.338233709335327 163 163 163
0.603803813457489 0.7812383770942688 3.9801230430603027 31 31 31
0.9465150833129883 0.2909757196903229 3.3524410724639893 26 26 26
-1.0948771238327026 0.45479148626327515 3.450878858566284 55 55 55
0.9811345338821411 0.4173282980918884 3.2910947799682617 188 188 188
1.2856343984603882 -0.15429536998271942 3.781909227371216 120 120 120
1.0362637042999268 0.16828110814094543 3.684818744659424 157 157 157
-1.2798807621002197 -1.0830488204956055 4.152982711791992 161 161 161
-1.2798452377319336 -1.0830143690109253 4.152894020080566 161 161 161
-1.1491740942001343 -1.1089197397232056 4.309996604919434 99 99 99
1.2751978635787964 0.7476385831832886 3.3698084354400635 68 68 68
1.42598295211792 0.7029476165771484 3.2463982105255127 163 163 163
0.8902691006660461 0.726178765296936 3.4194562435150146 39 39 39
0.7592914700508118 0.7342395186424255 3.547109842300415 150 150 150
0.6038082838058472 0.781243085861206 3.9801321029663086 31 31 31
0.603805661201477 0.7812380194664001 3.9801173210144043 31 31 31
1.297629714012146 0.6458235383033752 3.3124566078186035 71 71 71
1.3212053775787354 0.6320169568061829 3.339466094970703 162 162 162
0.7692575454711914 0.6475356817245483 3.4903948307037354 109 109 109
0.018731925636529922 -1.0188875198364258 4.583713054656982 82 82 82
0.018838195130228996 -1.0186783075332642 4.583241939544678 82 82 82
1.3785496950149536 0.5840160250663757 3.299739122390747 199 199 199
0.1169746071100235 -1.0043665170669556 4.582511901855469 59 59 59
-0.7932239770889282 0.31871500611305237 4.0588579177856445 141 141 141
-0.7873754501342773 0.5169284343719482 3.0590603351593018 5 5 5
-0.7863953113555908 0.5241493582725525 3.153214693069458 21 21 21
-0.798823356628418 0.5185430645942688 3.0766680240631104 31 31 31
0.7258352637290955 0.5783738493919373 3.4798920154571533 103 103 103
-0.8650380373001099 0.4924931228160858 2.9419283866882324 122 122 122
-1.0768975019454956 0.5116514563560486 3.0399363040924072 103 103 103
1.3465756177902222 -0.17613229155540466 3.8136746883392334 120 120 120
1.313944697380066 -0.16312944889068604 3.7843925952911377 68 68 68
1.28563392162323 -0.1542951464653015 3.7819042205810547 120 120 120
-0.9406646490097046 0.5025188326835632 3.1034860610961914 180 180 180
-1.765398383140564 0.01814926601946354 4.016864776611328 77 77 77
1.1381278038024902 0.023304659873247147 3.688889265060425 207 207 207
1.161854863166809 0.04719540476799011 3.751343011856079 205 205 205
-0.9665548205375671 0.45927324891090393 3.0243518352508545 170 170 170
-0.985820472240448 0.46401679515838623 3.0513172149658203 110 110 110
1.0484081506729126 0.49092021584510803 3.31911039352417 122 122 122
1.1100540161132812 0.05331479385495186 3.6675593852996826 247 247 247
1.1607054471969604 0.046410609036684036 3.734809637069702 194 194 194
1.1162493228912354 0.08669538795948029 3.7322239875793457 169 169 169
1.147269368171692 0.11526444554328918 3.665306568145752 82 82 82
-0.9402551054954529 0.46569883823394775 3.1504898071289062 117 117 117
1.1684260368347168 0.11490929871797562 3.7271625995635986 110 110 110
-0.886039137840271 0.36964151263237 3.7632946968078613 6 6 6
1.0937520265579224 0.12217134982347488 3.6324501037597656 243 243 243
1.561591386795044 0.11567901819944382 3.4035913944244385 202 202 202
0.8646647334098816 0.1331299990415573 3.90692138671875 109 109 109
0.9988094568252563 0.4843042492866516 3.332916021347046 113 113 113
1.746811032295227 0.20751653611660004 5.416548252105713 51 51 51
-1.0951470136642456 0.4315832555294037 3.117082357406616 112 112 112
1.1039443016052246 0.1681232899427414 3.6776154041290283 198 198 198
1.120622992515564 0.15739044547080994 3.605104446411133 242 242 242
0.06009594723582268 0.21253976225852966 4.627289295196533 73 73 73
1.0984724760055542 0.1670628935098648 3.5610263347625732 168 168 168
0.984660267829895 0.37257498502731323 3.3458845615386963 38 38 38
0.03670181706547737 0.2764922082424164 2.5025174617767334 192 192 192
1.0084483623504639 0.3604178726673126 3.320671796798706 196 196 196
-1.1706746816635132 0.4338877499103546 3.44059157371521 188 188 188
0.9646912217140198 0.36821770668029785 3.2764711380004883 38 38 38
0.9309755563735962 0.39310595393180847 3.3422491550445557 38 38 38
1.3635883331298828 0.20098580420017242 3.312191963195801 193 193 193
1.3807564973831177 0.19816480576992035 3.295203447341919 78 78 78
1.3643828630447388 0.20510393381118774 3.3152389526367188 18 18 18
0.7857996225357056 0.22085627913475037 3.536820650100708 249 249 249
-1.1871635913848877 -1.0701028108596802 4.15784215927124 62 62 62
-1.2134406566619873 -1.0998806953430176 4.250331401824951 62 62 62
-0.9326180219650269 0.49765872955322266 2.9673714637756348 183 183 183
-1.3132925033569336 -1.3188557624816895 5.230907917022705 106 106 106
-0.9430109262466431 0.29462355375289917 3.6070141792297363 77 77 77
-0.8629420399665833 0.35486164689064026 3.8319568634033203 36 36 36
-0.924399197101593 0.3788471221923828 3.8359861373901367 138 138 138
-0.8770368099212646 0.439838707447052 3.079360246658325 171 171 171
-0.8226377367973328 0.345429927110672 3.842515468597412 111 111 111
0.3698521852493286 -0.5994417667388916 4.322539329528809 103 103 103
-0.9730947613716125 0.49897101521492004 3.1149237155914307 167 167 167
0.4906037449836731 -0.09289821237325668 4.216058731079102 89 89 89
0.18353642523288727 0.2830126881599426 2.6781387329101562 7 7 7
-1.1245794296264648 0.24275723099708557 3.906318187713623 97 97 97
1.0940653085708618 0.06705453991889954 3.6554853916168213 86 86 86
1.1318376064300537 0.06499931961297989 3.6816179752349854 238 238 238
1.0977598428726196 0.07265574485063553 3.6980504989624023 77 77 77
1.1382027864456177 0.11047130823135376 3.781140089035034 245 245 245
1.5426535606384277 0.09048938006162643 3.3296120166778564 99 99 99
1.523679494857788 0.10576043277978897 3.329951524734497 163 163 163
1.5332204103469849 0.1099124401807785 3.3770751953125 164 164 164
1.5214065313339233 0.10840383172035217 3.317081928253174 202 202 202
1.1031948328018188 0.12811240553855896 3.662102460861206 243 243 243
1.1731759309768677 0.12621399760246277 3.5201077461242676 187 187 187
1.4745234251022339 0.12580452859401703 3.351478099822998 162 162 162
1.0332984924316406 0.16787242889404297 3.684382677078247 162 162 162
1.3837954998016357 0.22529593110084534 3.2665841579437256 99 99 99
1.4315906763076782 0.8324506878852844 3.286068916320801 109 109 109
1.436530590057373 0.8044112920761108 3.273437976837158 58 58 58
1.4325191974639893 0.7953326106071472 3.2539892196655273 94 94 94
-1.1415555477142334 0.24030287563800812 3.93485689163208 191 191 191
-1.1143579483032227 0.23681414127349854 3.888023614883423 125 125 125
1.3739385604858398 0.20455402135849 3.384570598602295 174 174 174
1.2117339372634888 0.7849788069725037 3.3273208141326904 108 108 108
0.7488877177238464 0.7688829898834229 3.545185089111328 5 5 5
1.0345509052276611 0.5161138772964478 3.3264005184173584 138 138 138
1.442126750946045 0.6848533153533936 3.244642972946167 85 85 85
1.277719259262085 0.6766522526741028 3.300088882446289 114 114 114
1.2777189016342163 0.6766529679298401 3.3000869750976562 114 114 114
1.297629714012146 0.6458232998847961 3.3124566078186035 71 71 71
0.6038092970848083 0.7812521457672119 3.9801533222198486 31 31 31
0.7763028144836426 0.6352480053901672 3.5127975940704346 89 89 89
0.9676995873451233 0.39286208152770996 3.2992265224456787 31 31 31
1.3895214796066284 0.5554894804954529 3.3320860862731934 10 10 10
0.7783376574516296 0.2429955154657364 3.527081251144409 8 8 8
1.4502509832382202 0.141195148229599 3.3065690994262695 221 221 221
1.277718424797058 0.6766475439071655 3.3000869750976562 114 114 114
-0.9596940875053406 0.5058041214942932 3.1309986114501953 72 72 72
-0.8862824440002441 0.36949682235717773 3.764535427093506 6 6 6
-1.127191185951233 0.23350907862186432 3.718029260635376 152 152 152
0.10059915482997894 0.3351758122444153 2.4934351444244385 82 82 82
-0.9006485342979431 0.3519558310508728 3.817918062210083 45 45 45
-1.145768642425537 0.2558075189590454 3.9452579021453857 23 23 23
1.483827829360962 0.21621496975421906 3.2200334072113037 223 223 223
1.0368942022323608 0.08811883628368378 3.688711643218994 171 171 171
-0.8970411419868469 0.2987690269947052 3.7730214595794678 186 186 186
1.3147541284561157 0.16584929823875427 3.4059879779815674 159 159 159
-0.28852254152297974 0.21695807576179504 4.50582218170166 61 61 61
0.7631924748420715 -1.0183672904968262 3.895399570465088 119 119 119
-1.2054394483566284 -1.058036208152771 4.090666770935059 153 153 153
-1.31890070438385 -1.0549004077911377 4.112406253814697 1 1 1
0.7248598337173462 -0.9943479895591736 3.8503689765930176 88 88 88
-0.7287894487380981 -1.031947135925293 4.160639762878418 30 30 30
-0.7433818578720093 -1.088631272315979 4.3848557472229 165 165 165
-0.7103292942047119 -1.0682072639465332 4.314566135406494 103 103 103
-0.5455278158187866 -1.0319595336914062 4.242021083831787 129 129 129
-0.778018057346344 -1.0279569625854492 4.2989702224731445 218 218 218
-0.45681148767471313 -0.9075186848640442 3.751755714416504 113 113 113
-0.4181038439273834 -1.0539557933807373 4.425918102264404 98 98 98
0.3824964463710785 -0.9699786305427551 4.378472805023193 46 46 46
0.0680561363697052 -0.9839373826980591 4.603102684020996 63 63 63
0.14760008454322815 -0.9833008646965027 4.592353343963623 91 91 91
0.11830910295248032 -0.9621688723564148 4.561028003692627 84 84 84
0.2554816007614136 -0.956360936164856 4.571533679962158 20 20 20
0.22670899331569672 -0.9013039469718933 4.562015056610107 116 116 116
-1.2893781661987305 -0.7735018730163574 4.1551384925842285 117 117 117
0.26163265109062195 -0.819728672504425 4.5057501792907715 105 105 105
0.38335758447647095 -0.7790806889533997 4.342362403869629 53 53 53
1.315328598022461 -0.16265034675598145 3.796224355697632 96 96 96
1.3594446182250977 -0.16209739446640015 3.8910274505615234 102 102 102
1.3513092994689941 -0.15711332857608795 3.822258472442627 112 112 112
0.49062657356262207 -0.09288741648197174 4.215850830078125 89 89 89
-1.366170883178711 0.012703008018434048 4.222433090209961 131 131 131
-1.3665269613265991 0.012700170278549194 4.223030090332031 131 131 131
0.2375023514032364 0.019319579005241394 4.614245414733887 119 119 119
1.0340238809585571 0.04505230486392975 3.667680501937866 96 96 96
1.1090949773788452 0.04667118936777115 3.6595494747161865 197 197 197
1.0987211465835571 0.07018090039491653 3.7303273677825928 122 122 122
1.108521819114685 0.09044431895017624 3.7105326652526855 169 169 169
1.5257550477981567 0.08170397579669952 3.347686767578125 121 121 121
1.1307600736618042 0.09901809692382812 3.6582789421081543 248 248 248
1.0970149040222168 0.09982065111398697 3.651191473007202 129 129 129
1.1472582817077637 0.11525348573923111 3.6652462482452393 82 82 82
0.7978525757789612 0.14506439864635468 3.958956003189087 141 141 141
1.1020936965942383 0.1284085065126419 3.6586313247680664 146 146 146
1.152672529220581 0.12738288938999176 3.7371509075164795 46 46 46
0.7822254300117493 0.14876651763916016 3.878180980682373 141 141 141
1.4875497817993164 0.12663978338241577 3.3326456546783447 99 99 99
1.4744237661361694 0.12824897468090057 3.350602388381958 162 162 162
1.1476587057113647 0.14885909855365753 3.5266969203948975 129 129 129
1.4629909992218018 0.14341525733470917 3.3510353565216064 224 224 224
0.06009792909026146 0.21253597736358643 4.627223491668701 73 73 73
1.034391164779663 0.16677944362163544 3.6884372234344482 162 162 162
1.3370078802108765 0.15578599274158478 3.3946070671081543 167 167 167
-0.6211272478103638 0.19831715524196625 4.143803119659424 185 185 185
-0.2885235846042633 0.21695493161678314 4.505824565887451 61 61 61
1.027592658996582 0.19170506298542023 3.6641016006469727 188 188 188
1.3665064573287964 0.2002892643213272 3.333665370941162 151 151 151
1.3807815313339233 0.19818556308746338 3.295362949371338 78 78 78
1.4042271375656128 0.2146788388490677 3.3017685413360596 214 214 214
-1.293734073638916 0.2641737759113312 3.9714388847351074 41 41 41
-1.5823620557785034 0.290324866771698 3.8058786392211914 31 31 31
-1.5668816566467285 0.29492637515068054 3.824819564819336 254 254 254
-0.8939105272293091 0.2699550986289978 3.5826127529144287 206 206 206
0.9117724299430847 0.2668987512588501 3.3691351413726807 145 145 145
0.956514298915863 0.25101903080940247 3.2996318340301514 90 90 90
-0.9080376625061035 0.3162728548049927 3.811779737472534 85 85 85
-0.8578798174858093 0.302243709564209 3.8069417476654053 176 176 176
1.478723406791687 0.27264437079429626 3.2692711353302 197 197 197
-0.8826925158500671 0.3028849959373474 3.6150739192962646 161 161 161
-0.8129435181617737 0.3395559787750244 3.7800729274749756 67 67 67
-0.8300845623016357 0.339251846075058 3.685105800628662 36 36 36
-0.8864074945449829 0.3695770502090454 3.7647786140441895 6 6 6
-0.9139836430549622 0.369402676820755 3.7319746017456055 137 137 137
-0.9409346580505371 0.3634684979915619 3.605015516281128 74 74 74
0.9646914601325989 0.36822086572647095 3.276477813720703 38 38 38
0.9675789475440979 0.39155739545822144 3.2992119789123535 51 51 51
-1.170652151107788 0.4338771104812622 3.4405434131622314 188 188 188
-1.1280142068862915 0.4198801517486572 3.315798044204712 188 188 188
-1.0210516452789307 0.4480201303958893 3.323140859603882 184 184 184
0.11610659956932068 0.34778904914855957 2.5018422603607178 54 54 54
0.9523442983627319 0.4448464512825012 3.2973129749298096 167 167 167
-1.0388327836990356 0.44918563961982727 3.1915037631988525 156 156 156
0.9535580277442932 0.4739261865615845 3.2912139892578125 50 50 50
1.0527220964431763 0.4671250879764557 3.305546522140503 198 198 198
-1.1193418502807617 0.49580076336860657 3.3567450046539307 37 37 37
0.9954050779342651 0.4757748246192932 3.325284481048584 113 113 113
1.0219911336898804 0.47800666093826294 3.235767364501953 122 122 122
-1.0217784643173218 0.4747532308101654 3.1382997035980225 167 167 167
-0.989692747592926 0.4668179750442505 3.092789888381958 76 76 76
-0.9267535209655762 0.49135586619377136 3.2386608123779297 35 35 35
-0.9113767743110657 0.46089187264442444 3.0077037811279297 48 48 48
-0.8616845011711121 0.4756057560443878 3.1100170612335205 69 69 69
-1.0770260095596313 0.5118409395217896 3.0401294231414795 103 103 103
-0.9278583526611328 0.4800277352333069 2.9106364250183105 103 103 103
1.3895155191421509 0.5554793477058411 3.3320491313934326 10 10 10
-1.0648094415664673 0.5136356353759766 3.0467259883880615 129 129 129
-0.801741361618042 0.5131204724311829 3.037067174911499 157 157 157
-0.821441650390625 0.5266531705856323 3.1122653484344482 157 157 157
-1.1003053188323975 0.5122456550598145 3.0036706924438477 32 32 32
0.9650174975395203 0.554266095161438 3.286332607269287 26 26 26
0.5512794256210327 0.7792989015579224 4.012106895446777 178 178 178
0.6038114428520203 0.781240701675415 3.980109453201294 31 31 31
0.9120145440101624 0.669679582118988 3.360236406326294 72 72 72
0.9555400013923645 0.6880365610122681 3.380145311355591 163 163 163
1.2777174711227417 0.6766449809074402 3.300081729888916 114 114 114
1.2649898529052734 0.6783620119094849 3.3244073390960693 137 137 137
1.4445801973342896 0.6915282607078552 3.2668676376342773 133 133 133
1.4543548822402954 0.6953428983688354 3.2698585987091064 85 85 85
1.4522490501403809 0.6905609965324402 3.2115864753723145 132 132 132
1.4259876012802124 0.7029459476470947 3.2464077472686768 163 163 163
1.4243228435516357 0.699722170829773 3.2372658252716064 54 54 54
1.291326642036438 1.0086086988449097 4.46435022354126 77 77 77
1.268507957458496 0.7470618486404419 3.3501803874969482 68 68 68
1.2117571830749512 0.7850532531738281 3.3273465633392334 108 108 108
1.2707628011703491 0.8031317591667175 3.2894725799560547 87 87 87
1.4305158853530884 0.7918238639831543 3.242504835128784 128 128 128
0.7465511560440063 -0.999967098236084 3.8099751472473145 119 119 119
0.4880177080631256 -1.0742355585098267 4.084693908691406 189 189 189
0.49195563793182373 -1.0944448709487915 4.114943504333496 189 189 189
-1.2007062435150146 -1.056438684463501 4.082357883453369 181 181 181
0.7857474088668823 -0.9900069832801819 3.9558780193328857 168 168 168
-0.5455163717269897 -1.0319509506225586 4.24199104309082 129 129 129
-0.7780174016952515 -1.027958869934082 4.298968315124512 218 218 218
-0.41807037591934204 -1.0538640022277832 4.425482273101807 98 98 98
-0.3136695623397827 -1.039484977722168 4.410242080688477 108 108 108
-0.6139464378356934 -1.0201473236083984 4.34844970703125 218 218 218
-0.42356550693511963 -1.0205051898956299 4.4581780433654785 84 84 84
0.01838260516524315 -1.004103183746338 4.488770484924316 82 82 82
0.12058205157518387 -0.9578579068183899 4.549705505371094 85 85 85
0.25310996174812317 -0.9591560363769531 4.586437225341797 20 20 20
0.22671592235565186 -0.9012943506240845 4.561974048614502 116 116 116
0.3248152732849121 -0.35381633043289185 4.503815174102783 40 40 40
0.3598572611808777 -0.3145408630371094 4.3800530433654785 34 34 34
1.2787271738052368 -0.1728052794933319 3.9617905616760254 218 218 218
1.3357456922531128 -0.16198782622814178 3.8476500511169434 202 202 202
0.525732696056366 -0.15987738966941833 4.163715362548828 25 25 25
0.4906255900859833 -0.09289129078388214 4.21624755859375 89 89 89
0.5213015675544739 -0.08561865985393524 4.182545185089111 71 71 71
-1.3130416870117188 0.009126677177846432 4.1846113204956055 66 66 66
0.23749838769435883 0.019325293600559235 4.614272117614746 119 119 119
1.1240782737731934 0.041790541261434555 3.6305177211761475 205 205 205
1.1139429807662964 0.03936954587697983 3.6741626262664795 248 248 248
1.1040621995925903 0.09489666670560837 3.744443893432617 215 215 215
1.0679774284362793 0.0990743488073349 3.6527931690216064 99 99 99
1.1312248706817627 0.0982632264494896 3.6684253215789795 135 135 135
1.149699091911316 0.1077703908085823 3.6756093502044678 82 82 82
1.067976713180542 0.09907390177249908 3.6527748107910156 99 99 99
1.4737414121627808 0.12697412073612213 3.3493845462799072 162 162 162
0.060097645968198776 0.2125381976366043 4.627232551574707 73 73 73
-0.13844358921051025 0.20954781770706177 4.714649200439453 103 103 103
1.0339608192443848 0.16551579535007477 3.675710439682007 116 116 116
1.4432326555252075 0.15756750106811523 3.3091390132904053 175 175 175
-0.6663669943809509 0.23122458159923553 4.099303245544434 72 72 72
1.3667241334915161 0.1990615427494049 3.3360493183135986 143 143 143
-1.149950623512268 0.230763778090477 3.737794876098633 112 112 112
1.3259214162826538 0.21411390602588654 3.420041799545288 166 166 166
-0.2934058606624603 0.29268065094947815 4.418602466583252 198 198 198
-1.178152322769165 0.25989049673080444 3.8207788467407227 33 33 33
-1.117261290550232 0.2574990391731262 3.3719983100891113 94 94 94
1.283172845840454 0.2610033452510834 3.298813819885254 178 178 178
-0.9430041909217834 0.294621080160141 3.6070024967193604 77 77 77
-0.7984110116958618 0.31872549653053284 3.8356525897979736 186 186 186
-0.8379495739936829 0.3536890149116516 3.9148881435394287 111 111 111
-0.7871026396751404 0.34448927640914917 3.886507034301758 104 104 104
-0.8671724796295166 0.3311769366264343 3.672722101211548 45 45 45
-0.8275642991065979 0.3475418984889984 3.763622760772705 105 105 105
-0.8857213854789734 0.3692724406719208 3.7616753578186035 6 6 6
-1.2245579957962036 0.37627047300338745 3.4172592163085938 27 27 27
0.9298331141471863 0.393653005361557 3.3375980854034424 38 38 38
-1.2060425281524658 0.4019279479980469 3.290053129196167 68 68 68
-1.1396377086639404 0.4355480670928955 3.475245237350464 147 147 147
1.0707286596298218 0.45068347454071045 3.325791597366333 170 170 170
-0.8388971090316772 0.46307140588760376 3.368698835372925 45 45 45
0.9535580277442932 0.4739271104335785 3.291221857070923 50 50 50
1.0236809253692627 0.4868098199367523 3.300428628921509 189 189 189
1.0484141111373901 0.49091947078704834 3.319126844406128 122 122 122
-1.0625159740447998 0.49985378980636597 2.997352361679077 123 123 123
-0.9740252494812012 0.4894598424434662 2.9733991622924805 148 148 148
0.9444939494132996 0.5614275932312012 3.3400983810424805 150 150 150
1.3985995054244995 0.5720721483230591 3.318230390548706 180 180 180
1.3816808462142944 0.5838077664375305 3.307927131652832 199 199 199
1.3725031614303589 0.6021520495414734 3.344264507293701 82 82 82
0.7762991189956665 0.6352502703666687 3.5128257274627686 89 89 89
1.281095266342163 0.6337201595306396 3.411334991455078 38 38 38
1.3205039501190186 0.6323659420013428 3.332329273223877 118 118 118
-0.22383332252502441 0.47150421142578125 2.415402412414551 43 43 43
0.5491672158241272 0.776007890701294 3.997041702270508 178 178 178
0.9175598621368408 0.6698454022407532 3.3836607933044434 72 72 72
0.603811502456665 0.7812507152557373 3.9801361560821533 31 31 31
1.2969945669174194 0.6442357301712036 3.3077762126922607 71 71 71
0.9120139479637146 0.669689953327179 3.3602871894836426 72 72 72
0.9407746195793152 0.6762765645980835 3.328629970550537 163 163 163
0.6368516087532043 0.8063396215438843 3.983823299407959 22 22 22
1.2678663730621338 0.6769452691078186 3.326580286026001 107 107 107
1.4259880781173706 0.7029473781585693 3.246410608291626 163 163 163
1.2906816005706787 0.7855913043022156 3.2727503776550293 74 74 74
0.7631911635398865 -1.0183643102645874 3.895392656326294 119 119 119
-1.126060128211975 -1.063112497329712 4.091493606567383 191 191 191
0.4880111813545227 -1.0742541551589966 4.084670066833496 189 189 189
0.7177731990814209 -1.0109302997589111 3.934915781021118 108 108 108
-1.2939746379852295 -1.0332351922988892 4.151983737945557 119 119 119
-0.7079605460166931 -1.0658289194107056 4.3002824783325195 103 103 103
0.48792773485183716 -1.0169342756271362 4.128748416900635 128 128 128
-0.6773093342781067 -1.0514392852783203 4.347866535186768 156 156 156
-0.41812384128570557 -1.0539782047271729 4.426003456115723 98 98 98
-0.6140081882476807 -1.0201890468597412 4.34860897064209 218 218 218
-0.40240129828453064 -1.061270833015442 4.5247626304626465 164 164 164
-0.4235728979110718 -1.0190507173538208 4.458397388458252 84 84 84
0.018839756026864052 -1.0186680555343628 4.583139896392822 82 82 82
0.38011446595191956 -0.8263493776321411 4.303496360778809 118 118 118
0.36985307931900024 -0.5994409918785095 4.322537422180176 103 103 103
0.26654839515686035 -0.6011251211166382 4.522939205169678 36 36 36
0.3100932538509369 -0.3816485106945038 4.499961853027344 63 63 63
1.3241486549377441 -0.17704631388187408 3.8890771865844727 242 242 242
1.3124051094055176 -0.17372919619083405 3.7872979640960693 144 144 144
1.2679966688156128 -0.16313637793064117 3.8626227378845215 200 200 200
0.49119919538497925 -0.16661852598190308 4.204282760620117 86 86 86
0.5258861184120178 -0.15953752398490906 4.162482261657715 20 20 20
0.5213037133216858 -0.08561045676469803 4.182531356811523 71 71 71
1.262515902519226 -0.05513080209493637 3.778663396835327 220 220 220
-1.3130847215652466 0.009133105166256428 4.184684753417969 66 66 66
0.2375018298625946 0.01932218112051487 4.6142497062683105 119 119 119
0.2557834982872009 0.021046120673418045 4.5039262771606445 44 44 44
1.0133247375488281 0.037028949707746506 3.676727771759033 139 139 139
0.35296353697776794 0.04097126051783562 4.365840911865234 40 40 40
1.180314064025879 0.05888991430401802 3.710458755493164 255 255 255
1.096591591835022 0.06938018649816513 3.7058138847351074 136 136 136
0.803581178188324 0.13255801796913147 3.887098550796509 225 225 225
0.060089949518442154 0.21254348754882812 4.627259731292725 73 73 73
1.3829057216644287 0.1642354130744934 3.420253276824951 161 161 161
-0.28851979970932007 0.21696075797080994 4.505790710449219 61 61 61
1.3672219514846802 0.1987857073545456 3.3398256301879883 143 143 143
-1.229477882385254 0.2390362173318863 3.8649094104766846 62 62 62
-1.1680067777633667 0.23596996068954468 3.821267604827881 170 170 170
0.7857993841171265 0.22085636854171753 3.5368261337280273 249 249 249
-0.34015071392059326 0.3086126446723938 4.4764933586120605 254 254 254
1.385352611541748 0.22413180768489838 3.2706940174102783 99 99 99
1.283172845840454 0.26100364327430725 3.298816204071045 178 178 178
-1.1349931955337524 0.27266573905944824 3.4410645961761475 24 24 24
1.167421817779541 0.2646665573120117 3.393671989440918 134 134 134
1.262514352798462 0.26601526141166687 3.315201997756958 97 97 97
-0.9836070537567139 0.34660428762435913 4.019805431365967 164 164 164
-0.862937331199646 0.35485929250717163 3.831932306289673 36 36 36
-1.1991337537765503 0.3164920210838318 3.3654987812042236 50 50 50
-0.881717324256897 0.3679381012916565 3.7455151081085205 6 6 6
-0.9611538052558899 0.37916332483291626 3.6856188774108887 74 74 74
0.9809667468070984 0.35148823261260986 3.2938506603240967 202 202 202
1.0063872337341309 0.3572410047054291 3.3129866123199463 200 200 200
0.9681659936904907 0.3940867483615875 3.300273895263672 31 31 31
0.9535579681396484 0.4739272892475128 3.291219711303711 50 50 50
0.917025625705719 0.47073397040367126 3.347302198410034 42 42 42
1.0049993991851807 0.4893866181373596 3.3523993492126465 113 113 113
-0.9228554368019104 0.4998197555541992 3.1039302349090576 137 137 137
0.9003095626831055 0.5477772951126099 3.3399574756622314 120 120 120
-1.0331265926361084 0.5108982920646667 3.0297677516937256 217 217 217
-0.8167703747749329 0.524181604385376 3.0948076248168945 157 157 157
1.403640627861023 0.5945784449577332 3.3598225116729736 199 199 199
0.9683859944343567 0.5866705179214478 3.364509344100952 173 173 173
1.2810946702957153 0.6337204575538635 3.4113340377807617 38 38 38
1.3301007747650146 0.6560193300247192 3.39837384223938 71 71 71
0.5566014647483826 0.7873848676681519 4.049909591674805 178 178 178
1.3301007747650146 0.6560193300247192 3.39837384223938 71 71 71
0.7789444923400879 0.8844781517982483 3.5227508544921875 134 134 134
0.7323565483093262 0.9367216229438782 3.611560583114624 30 30 30
0.49830880761146545 -1.1202479600906372 4.002492904663086 132 132 132
0.4880099594593048 -1.0742310285568237 4.084689140319824 189 189 189
-1.2798407077789307 -1.0830107927322388 4.1528801918029785 161 161 161
-1.3188602924346924 -1.0548862218856812 4.112318992614746 1 1 1
-0.6774260997772217 -1.0208001136779785 4.114902973175049 103 103 103
0.48792529106140137 -1.0169389247894287 4.128769397735596 128 128 128
0.7891896367073059 -0.9680162072181702 3.870048999786377 205 205 205
-0.4049401879310608 -1.0658109188079834 4.532334804534912 154 154 154
-0.008497505448758602 -1.029500961303711 4.567931652069092 95 95 95
-0.21745409071445465 -1.0029535293579102 4.489050388336182 226 226 226
0.01884445548057556 -1.0186614990234375 4.583151340484619 82 82 82
0.09098565578460693 -1.0006057024002075 4.5467963218688965 23 23 23
0.14758801460266113 -0.983299732208252 4.592419624328613 91 91 91
0.11404799669981003 -0.9481465816497803 4.583985805511475 90 90 90
0.36162033677101135 -0.782940149307251 4.346157550811768 39 39 39
0.3619694113731384 -0.4051307439804077 4.386531829833984 174 174 174
0.3554297983646393 -0.30398547649383545 4.401235103607178 34 34 34
0.5212922692298889 -0.08562304824590683 4.182400703430176 71 71 71
0.35296422243118286 0.040971506386995316 4.3658366203308105 40 40 40
1.1596295833587646 0.04466152936220169 3.7205450534820557 153 153 153
1.1719406843185425 0.06538974493741989 3.675800085067749 255 255 255
0.8037271499633789 0.13063500821590424 3.8794829845428467 224 224 224
0.8646653890609741 0.13313144445419312 3.906935453414917 109 109 109
0.060091011226177216 0.2125428318977356 4.627254486083984 73 73 73
1.1136014461517334 0.18308274447917938 3.500441789627075 87 87 87
1.3597673177719116 0.19744573533535004 3.2869038581848145 188 188 188
1.3715620040893555 0.2135774940252304 3.29618501663208 72 72 72
1.2308764457702637 0.24905836582183838 3.262874126434326 143 143 143
1.283150553703308 0.2609918415546417 3.298617362976074 178 178 178
1.3434027433395386 0.2763665020465851 3.240997314453125 145 145 145
1.071743369102478 0.4574804902076721 3.3361685276031494 199 199 199
-0.9803716540336609 0.47679921984672546 3.1425278186798096 132 132 132
0.8998090028762817 0.5481311082839966 3.356426239013672 140 140 140
0.9378852248191833 0.6771381497383118 3.3164632320404053 163 163 163
1.2779357433319092 0.6766961216926575 3.30068302154541 114 114 114
1.2150683403015137 0.7787336111068726 3.34169864654541 108 108 108
0.48802217841148376 -1.0742461681365967 4.084571361541748 189 189 189
-1.2798638343811035 -1.083046555519104 4.152931213378906 161 161 161
-1.1306802034378052 -1.0218874216079712 3.9601707458496094 62 62 62
-1.3188737630844116 -1.0548938512802124 4.112353801727295 1 1 1
-0.6774255037307739 -1.0207998752593994 4.114901542663574 103 103 103
-0.6841156482696533 -1.0489741563796997 4.3071818351745605 180 180 180
-0.38548800349235535 -1.0628626346588135 4.485556125640869 173 173 173
-0.006256216671317816 -1.0261677503585815 4.558096408843994 86 86 86
0.018841007724404335 -1.0186699628829956 4.583183288574219 82 82 82
0.11232864856719971 -0.946422815322876 4.593769073486328 30 30 30
0.2584950029850006 -0.5952857136726379 4.534425258636475 63 63 63
1.2668026685714722 -0.16204659640789032 3.8263144493103027 202 202 202
1.3240106105804443 -0.1643039733171463 3.8742053508758545 85 85 85
0.49120068550109863 -0.16661308705806732 4.204280376434326 86 86 86
0.5234772562980652 -0.15347588062286377 4.141171932220459 20 20 20
0.809004545211792 0.12814538180828094 3.8245205879211426 223 223 223
0.7822303771972656 0.14876429736614227 3.8781850337982178 141 141 141
1.002138376235962 0.14932586252689362 3.701277017593384 165 165 165
-0.13844294846057892 0.20954681932926178 4.714627742767334 103 103 103
1.122576117515564 0.1598326414823532 3.6145195960998535 242 242 242
-0.8177535533905029 0.22175869345664978 4.138200759887695 149 149 149
1.1118264198303223 0.19130632281303406 3.4918594360351562 87 87 87
1.2530781030654907 0.2550787925720215 3.3201727867126465 122 122 122
0.9931228160858154 0.33973100781440735 3.323118209838867 203 203 203
0.9525611400604248 0.4527069628238678 3.349576234817505 157 157 157
1.3502224683761597 0.49481168389320374 3.4652411937713623 123 123 123
1.3385980129241943 0.48250678181648254 3.376272439956665 134 134 134
0.966382622718811 0.5719512701034546 3.332582712173462 168 168 168
1.3324850797653198 0.6376516819000244 3.424515962600708 128 128 128
1.3214844465255737 0.6328732371330261 3.3412234783172607 162 162 162
0.9405158162117004 0.7390785813331604 3.3786280155181885 153 153 153
0.883518397808075 0.75322425365448 3.3305013179779053 62 62 62
-1.2798759937286377 -1.0830446481704712 4.15295934677124 161 161 161
-1.1306802034378052 -1.0218875408172607 3.9601709842681885 62 62 62
-1.1552575826644897 -1.0882737636566162 4.185094833374023 194 194 194
-1.3188637495040894 -1.054890513420105 4.112337112426758 1 1 1
0.4982592463493347 -1.0183098316192627 4.056455135345459 161 161 161
-0.6774271726608276 -1.0208004713058472 4.11490535736084 103 103 103
-0.6629026532173157 -1.032327651977539 4.255695343017578 156 156 156
-1.3249120712280273 -1.0252752304077148 4.212446212768555 134 134 134
-0.392686665058136 -1.0695185661315918 4.507962703704834 171 171 171
0.11234629899263382 -0.9399917721748352 4.59034538269043 30 30 30
0.35616424679756165 -0.5844438076019287 4.403005599975586 45 45 45
0.31100666522979736 -0.41962897777557373 4.646823406219482 95 95 95
1.3074324131011963 -0.16854797303676605 3.7315595149993896 142 142 142
-1.3144665956497192 -0.01922483928501606 4.132497310638428 123 123 123
1.0619701147079468 0.08968254178762436 3.6508185863494873 184 184 184
-1.0788816213607788 0.2306254357099533 4.064645767211914 190 190 190
-0.8176587224006653 0.2216712087392807 4.1379876136779785 168 168 168
1.1131579875946045 0.1950324922800064 3.4947562217712402 87 87 87
1.2565038204193115 0.25843754410743713 3.3516454696655273 114 114 114
1.0169636011123657 0.4828130006790161 3.2984611988067627 193 193 193
0.9073473811149597 0.5362962484359741 3.4057328701019287 140 140 140
1.00692880153656 0.5670238733291626 3.3441262245178223 38 38 38
0.8820220232009888 0.7831954956054688 3.4345250129699707 7 7 7
