ply
format ascii 1.0
element vertex 27
property float x
property float y
property float z
property uchar red
property uchar green
property uchar blue
end_header
-3.738037109375 -2.60508394241333 47.00593948364258 206 206 206
-1.6365180015563965 -10.062893867492676 42.62179183959961 22 22 22
-0.4731387495994568 -8.693979263305664 42.43488693237305 22 22 22
-0.011542554944753647 -9.888740539550781 41.526187896728516 22 22 22
1.387898325920105 -11.955992698669434 42.46381378173828 6 6 6
1.3891503810882568 -9.610755920410156 42.12401580810547 32 32 32
1.5544172525405884 -9.560369491577148 41.71868896484375 30 30 30
1.0898486375808716 0.9140775799751282 2.9993138313293457 70 70 70
-1.5093497037887573 -0.7588549852371216 45.96891403198242 78 78 78
-1.6712547540664673 -0.7905305027961731 48.979923248291016 150 150 150
-1.6712738275527954 -0.7905063629150391 48.98072814941406 150 150 150
-0.9455189108848572 -1.0635825395584106 43.56165313720703 114 114 114
-1.8800023794174194 1.5323357582092285 46.9567985534668 151 151 151
-0.7460771799087524 -1.3787922859191895 49.41146469116211 173 173 173
-1.8401062488555908 1.4979199171066284 46.270442962646484 174 174 174
1.1491382122039795 -9.805045127868652 41.322505950927734 70 70 70
-3.732362985610962 -4.5559234619140625 49.094017028808594 43 43 43
-2.0060508251190186 -3.801088571548462 48.11896896362305 149 149 149
1.2722142934799194 -2.5982766151428223 48.02937698364258 218 218 218
1.5554598569869995 -1.5560004711151123 41.10757064819336 115 115 115
0.23981986939907074 -5.443878173828125 47.757049560546875 165 165 165
-0.8102144598960876 -3.7543954849243164 48.407020568847656 71 71 71
-1.6711992025375366 -0.7904070615768433 48.98044967651367 150 150 150
-4.679340839385986 2.474888563156128 47.39504623413086 167 167 167
-2.197810173034668 -3.9636518955230713 47.37086868286133 38 38 38
-1.9747843742370605 -0.5312087535858154 48.37926483154297 189 189 189
-4.776991844177246 8.72822380065918 48.0294189453125 55 55 55
