ply
format ascii 1.0
element vertex 21
property float x
property float y
property float z
property uchar red
property uchar green
property uchar blue
end_header
-17.643787384033203 9.848311424255371 38.71371841430664 123 123 123
-13.014998435974121 7.358654975891113 29.075624465942383 50 50 50
-6.27989387512207 -6.953117370605469 46.908138275146484 40 40 40
-4.174313545227051 27.23332405090332 49.17247772216797 33 33 33
-4.174313545227051 27.23332405090332 49.17247772216797 33 33 33
-3.649879217147827 26.726333618164062 48.86599349975586 40 40 40
-1.377404808998108 23.49579620361328 46.78291702270508 12 12 12
-11.928886413574219 3.9060018062591553 38.566139221191406 52 52 52
-11.060193061828613 -2.9042277336120605 48.266632080078125 80 80 80
-14.339826583862305 9.67617130279541 31.7405948638916 60 60 60
-10.477700233459473 11.887429237365723 45.9372444152832 69 69 69
-11.361380577087402 7.659992218017578 29.892797470092773 81 81 81
-15.185357093811035 -5.4796881675720215 47.91974639892578 51 51 51
-10.717656135559082 7.14194917678833 34.444854736328125 123 123 123
-10.496674537658691 7.06050968170166 27.567705154418945 93 93 93
-9.429420471191406 10.644156455993652 41.197784423828125 61 61 61
-9.809493064880371 6.580612659454346 25.729597091674805 36 36 36
-9.658952713012695 10.914811134338379 42.24060821533203 61 61 61
-3.003920078277588 17.29914665222168 37.84911346435547 43 43 43
-10.421791076660156 6.812035083770752 44.08780288696289 106 106 106
-15.367472648620605 10.623215675354004 41.585365295410156 93 93 93
